<svg id="DRAW" xmlns="http://www.w3.org/2000/svg" xmlns:xlink="http://www.w3.org/1999/xlink" viewBox="0 0 673.81 782.39">
    <defs>
        <style>
            .cls-1,.cls-2,.cls-5{stroke:#101110;}.cls-1,.cls-2,.cls-3,.cls-5{stroke-miterlimit:10;}.cls-1,.cls-5{stroke-width:4px;}.cls-1{fill:url(#linear-gradient);}.cls-2{fill:#00d868;}.cls-2,.cls-3{stroke-width:3px;}.cls-3{fill:#1f1f1f;stroke:#111;}.cls-4{fill:#101110;}.cls-5{fill:none;stroke-linecap:round;}.cls-6{fill:#636363;}.cls-7{fill:#111;}
        </style>
        <linearGradient id="linear-gradient" x1="542.85" y1="928.9" x2="542.85" y2="169.38" gradientUnits="userSpaceOnUse">
            <stop offset="0" stop-color="#ff7763"/>
            <stop offset="0.57" stop-color="#ffb140"/><stop offset="1" stop-color="#ffe97e"/>
            <stop offset="1" stop-color="#ffef7f"/>
        </linearGradient>
    </defs>
    <g id="LOGO_FINAL">
        <path class="cls-1" d="M208,286.45s20.13,43.63,16.78,62.08c0,0,67.11,97.32,57,140.94,0,0,63.75,88.93,26.84,201.34l5,50.34s36.92,10.06,28.53,16.78l-18.46,28.52L364,831.75s15.1,85.25,0,97.15c0,0,30.2-25,38.59-56.88,0,0,140.94,97.31,291.94,5,0,0,28.91,40,53,51.85,0,0-22.84-63.59-19.49-100.5,0,0,20.14-3.36,26.85-30.21,0,0,18.45-23.49,22.95-30.18,0,0-21.28-141,27.38-251.69,0,0,6.71-75.51,55.37-161.08,0,0,31.88-40.26,8.39-99,0,0-6.71-40.27-36.91-73.82,0,0-29.38-29.38-59.55,0a29.66,29.66,0,0,0-8.08,27.49c4.73,21.94,14.77,62.52,25.68,69.8,0,0-50.33,31.88-80.54,105.7,0,0-4.25,20-20.13,15.11-5.15-1.58-21.81-23.49-21.81-23.49l-31.88,38.59s-26.56-17.43-36.91-16.78c-25.58,1.61-45.3,23.49-45.3,23.49l-28.53-25.17s-3.35,43.62-33.55,38.59c-24.21-4-47.8-30.94-50.34-43.62-6.71-33.56-35-18.29-45.3-10.07,0,0-43.63-72.15-87.25-95.64,0,0-1.68-57,16.78-82.21,0,0,5-21.81-15.1-28.53,0,0-50.34-13.42-62.08,18.46C248.27,194.17,219.74,234.44,208,286.45Z" transform="translate(-205.9 -150.5)"/>
        <path class="cls-2" d="M730.59,495.32a2,2,0,0,0-3.71-.9c-10.51,16.56-44.29,70.35-55.56,95.72-13.43,30.2-28.53,52-65.44,67.12S574,732.76,574,732.76,584.07,768,632.73,768c0,0,23.49,1.68,57-33.55,0,0,43.63-35.24,47-72.15,0,0-1.68-93.55-1.68-107.38C735.07,544.25,731.9,509.29,730.59,495.32Z" transform="translate(-205.9 -150.5)"/>
        <path class="cls-2" d="M363.49,495.32a2,2,0,0,1,3.71-.9c10.51,16.56,44.29,70.35,55.56,95.72,13.43,30.2,28.53,52,65.44,67.12s31.88,75.5,31.88,75.5S510,768,461.35,768c0,0-23.49,1.68-57-33.55,0,0-43.63-35.24-47-72.15,0,0,1.68-93.55,1.68-107.38C359,544.25,362.18,509.29,363.49,495.32Z" transform="translate(-205.9 -150.5)"/>
        <path class="cls-3" d="M395.92,382.09c10.35-8.22,38.59-23.49,45.3,10.07,2.54,12.68,26.13,39.59,50.34,43.62,30.2,5,33.55-38.59,33.55-38.59l28.53,25.17s19.72-21.88,45.3-23.49c10.35-.65,36.91,16.78,36.91,16.78l31.88-38.59s16.66,21.91,21.81,23.49c15.89,4.85,20.13-15.11,20.13-15.11,30.21-73.82,80.54-105.7,80.54-105.7-8.72-5.81-16.87-32.87-22.21-54.7C718.64,214.89,610.68,164,610.68,164c-26.84-18.46-40.27-10.07-40.27-10.07-10.06-5-72.14,33.56-72.14,33.56-30.2,18.46-47.82,49.5-47.82,49.5l-22.65-7.55c-39.74-5-91.43,36.94-115.6,59C354.61,313.78,395.92,382.09,395.92,382.09Z" transform="translate(-205.9 -150.5)"/>
        <path class="cls-4" d="M792,277.78a33.57,33.57,0,0,1,4-3.21c1.4-1,2.81-2,4.27-2.93,2.92-1.84,6-3.51,9.05-5.12a84.17,84.17,0,0,1,9.56-4.24A58,58,0,0,1,829,259.46a1.34,1.34,0,0,1,1.56,1.08,1.35,1.35,0,0,1-1,1.53,72.08,72.08,0,0,0-9.45,3.33c-3.08,1.32-6.08,2.85-9,4.46s-5.83,3.4-8.72,5.17c-1.45.88-2.93,1.73-4.41,2.57a38.46,38.46,0,0,1-4.53,2.42,1.38,1.38,0,0,1-1.78-.78A1.4,1.4,0,0,1,792,277.78Z" transform="translate(-205.9 -150.5)"/>
        <path class="cls-5" d="M308.2,286.12a116.26,116.26,0,0,0-46.58-18" transform="translate(-205.9 -150.5)"/>
        <path class="cls-6" d="M458.24,276.38c.06-.08,0-.28-.11-.25l-.13.33Z" transform="translate(-205.9 -150.5)"/>
        <path class="cls-6" d="M457.29,275.71a.72.72,0,0,0-.32.73c.19-.31.23-.17.44-.54a.19.19,0,0,1,.22.24c.06-.08.22.09.32-.11a.43.43,0,0,0-.69-.1C457.21,275.85,457.27,275.77,457.29,275.71Z" transform="translate(-205.9 -150.5)"/>
        <path class="cls-6" d="M442.72,274.61l.09,0A.19.19,0,0,0,442.72,274.61Z" transform="translate(-205.9 -150.5)"/>
        <path class="cls-6" d="M433.66,274.55c.07,0,.09,0,.1-.07S433.64,274.53,433.66,274.55Z" transform="translate(-205.9 -150.5)"/>
        <path class="cls-6" d="M432.1,274.24l.09,0S432.12,274.22,432.1,274.24Z" transform="translate(-205.9 -150.5)"/>
        <path class="cls-6" d="M442.72,274.61l-.24-.1C442.46,274.62,442.6,274.59,442.72,274.61Z" transform="translate(-205.9 -150.5)"/>
        <path class="cls-6" d="M455.23,276.38a.35.35,0,0,0,.13-.08l-.12,0Z" transform="translate(-205.9 -150.5)"/>
        <path class="cls-6" d="M446.72,274.4h.07a.54.54,0,0,0,.07-.13Z" transform="translate(-205.9 -150.5)"/>
        <path class="cls-6" d="M449.79,274.45c-.07,0-.11.27-.14.39.05-.11.1-.17.16-.19A.83.83,0,0,0,449.79,274.45Z" transform="translate(-205.9 -150.5)"/>
        <path class="cls-6" d="M454.62,275.2l.08,0Z" transform="translate(-205.9 -150.5)"/>
        <path class="cls-6" d="M444.52,274.29a.25.25,0,0,0,0-.1A.3.3,0,0,0,444.52,274.29Z" transform="translate(-205.9 -150.5)"/>
        <path class="cls-6" d="M361.45,291.75l0-.05S361.43,291.76,361.45,291.75Z" transform="translate(-205.9 -150.5)"/><polygon class="cls-6" points="151.74 141.28 151.78 141.25 151.73 141.1 151.74 141.28"/>
        <path class="cls-6" d="M429.24,274h0C429.33,274,429.29,274,429.24,274Z" transform="translate(-205.9 -150.5)"/>
        <path class="cls-6" d="M403.38,277.25c.33.19-.42.4.07.6C403.39,277.74,403.77,277.34,403.38,277.25Z" transform="translate(-205.9 -150.5)"/>
        <path class="cls-6" d="M455.15,276.33h0Z" transform="translate(-205.9 -150.5)"/>
        <path class="cls-6" d="M403.45,277.85h0l.05,0Z" transform="translate(-205.9 -150.5)"/>
        <path class="cls-6" d="M422.73,274.67a.24.24,0,0,0,.07.12S422.78,274.73,422.73,274.67Z" transform="translate(-205.9 -150.5)"/>
        <path class="cls-6" d="M427.61,274.7l-.12,0Z" transform="translate(-205.9 -150.5)"/>
        <path class="cls-6" d="M420.24,275.28c-.07,0-.09,0-.18,0l0,0A.1.1,0,0,1,420.24,275.28Z" transform="translate(-205.9 -150.5)"/>
        <path class="cls-6" d="M417.63,275.57l.05.05.08,0Z" transform="translate(-205.9 -150.5)"/>
        <path class="cls-6" d="M368.8,288.81a.9.9,0,0,1-.2-.19C368.71,288.79,368.37,289,368.8,288.81Z" transform="translate(-205.9 -150.5)"/>
        <path class="cls-6" d="M455.24,276.22c0,.07-.05.1-.09.11h.09A.17.17,0,0,0,455.24,276.22Z" transform="translate(-205.9 -150.5)"/>
        <path class="cls-6" d="M420.35,277.5h-.41A1.83,1.83,0,0,0,420.35,277.5Z" transform="translate(-205.9 -150.5)"/>
        <path class="cls-6" d="M386.64,283.26l-.08.06A.08.08,0,0,0,386.64,283.26Z" transform="translate(-205.9 -150.5)"/>
        <path class="cls-6" d="M418.72,277.67a.5.5,0,0,0-.25-.16.16.16,0,0,0,0,.07Z" transform="translate(-205.9 -150.5)"/>
        <path class="cls-6" d="M368.6,288.61h0Z" transform="translate(-205.9 -150.5)"/>
        <path class="cls-6" d="M366.27,290.18c.37-.13.05-.4.05-.63.41-.26.3.18.52.3.24-.19.33-.59.54-.65,0,.05.09.06.07.15.19-.39.86-.33,1.07-.81l.08.07a1.17,1.17,0,0,1-.22-.45c.16-.07.23-.34.37-.13-.1,0-.08.12-.1.21l.14-.16c.27.27-.2.2-.11.44.3-.23.6-.65.89-.65.17.3-.57.33-.12.49l-.45,0c.49.4-.25.06.22.5.56-.1.53-.39,1.1-.48.05-.22-.14-.25-.08-.47.65-.57.88.61,1.29,0,.07-.27,0-.69.46-.61v.41c.53-.14.12-.62.74-.56-.05.18-.37.26-.27.28.44.17.18-.29.45-.38l.16.3c.53-.23,1.06-.67,1.66-.93,0,.1-.08.24.1.29a5.24,5.24,0,0,1,2.47-.53l.2-.37c.06,0,.16.09.1.17.33,0,0-.18.07-.33a.14.14,0,0,1,.19.21,2.72,2.72,0,0,1,1.95-.82l-.08.11c.45,0,.3-.72.78-.57l-.07.07c1-.16,1.9-.72,2.73-.47,0-.45,1-.07.87-.65.61.14.48.28,1.28.27.21,0,.2-.44.43-.56l.09.29.25-.4.27.31.21-.14a.24.24,0,0,1-.24-.17.85.85,0,0,1,1,.12l.79-.48c0,.13-.12.21-.21.31.37-.42.16.3.5-.1-.07-.05,0-.18,0-.24a1.5,1.5,0,0,0,1.07-.15l0,.23c.65-.1,1.32-.42,2-.59a.26.26,0,0,1-.1-.49l.16.3c.09-.23-.25-.07,0-.37.28,0,.27.31.14.45l.3-.18c0,.09,0,.15,0,.28.09-.23.64.19.75-.2l0,.09c.71-.17,1-.35,1.59-.51,0-.28.19-.27.32-.53a5.75,5.75,0,0,0,1.49,0c.33-.21.05-.25.18-.45.08.25.6.12.36.35a6.36,6.36,0,0,0,1.54-.58c-.11-.08-.22-.11-.18-.2a.26.26,0,0,1,.35.16l0,0c.82-.55,2.19.31,2.79-.35l0,0,.68-.4c.35,0-.17.23.11.34.72-.56,1.26-.16,1.86-.55.64.65,1.79-.37,2.55,0l-.07-.17c.15-.21.23.06.37.08,0-.14-.22-.13-.13-.24,1.46-.48,3.14-.21,4.69-.28.56,0,.19-1,1-.64l-.16.36c1.08-.57,2.32-.32,3.39-.77-.05.08,0,.18-.15.19.26.22.87-.08.85-.28.17,0,.06.17.18.26s.56-.37.71-.15c0,0-.06.08-.1.11.14-.14.72-.06.54-.31.43.08.79-.22,1.14-.09.18-.34.73.06.75-.38,0,.45.77.27,1,.05-.08.14.24.12.16.31.3,0,.57-.14.49-.36.61.49,1.09-.53,1.46.13a20.19,20.19,0,0,1,2.5-.73c0,.46-.89.13-.82.59.75-.25,1.17-.67,1.94-.63.2.05-.1.21-.16.29.75-.25,1.49,0,2.16-.34,0,0-.07.09-.14.13.13,0,.32.05.29-.15l-.13.06c-.24-.28.5-.65.51-.81-.19.6.69.11.37.87a.27.27,0,0,0,.16-.28c.14,0,.18.11.06.27.47-.13.29-.34.73-.36,0,.1-.08.14-.12.26a.86.86,0,0,1,.8-.35c0,.06,0,.14-.09.14.64-.06,1.06-.57,1.77-.42-.19.44.24.12.29.5l.37-.13-.15-.18c.33,0,.61-.28.89-.16l-.23.16.61-.09-.35-.13c.32-.2-.06-.47.39-.38-.09,0,.33,0,.5.21h0a.59.59,0,0,1,.57-.17c.07.12,0,.42,0,.5.15-.32.77-.11,1-.45a.42.42,0,0,0,0,.32l.13-.26c.15.08.18.12.15.27.46,0-.15-.47.4-.28-.05,0,0,.06-.11.1.55.1,1.05-.18,1.56-.07.15.37-.44.1-.27.41a9.15,9.15,0,0,1,2.2-.38l-.13,0c.09-.53.52.27.88,0-.09,0-.12.29-.09.23a4.64,4.64,0,0,0,1.71-.29l-.09.14a7,7,0,0,0,1.05.14c.09-.14.26-.12.16-.31.93.78,1.8-.43,2.63.26-.1,0-.24.11-.16.11l.71-.1c-.05-.23-.09-.14-.23-.33a.57.57,0,0,1,.47-.22c-.32.14,0,.37.13.5,0-.07,0-.15,0-.22.36.43.07-.46.57-.17l0,.12c.2-.05.38-.21.58-.16.08.27-.21.11-.23.33.29,0,.59-.48.84-.21-.12.07-.3.07-.42.14.27.32.3.24.51.3h0l.48.16-.12-.09c.39-.68.74-.1,1.25-.54-.49.41-.09.24-.14.55.12.08.3.19.25.27.24-.24.37.2.71-.14,0,.1.24,0,.18.26.3-.07-.06-.17,0-.29.48-.33,1.06.46,1.74,0,.58-.15.71-.47,1.25-.6.16.17-.17.35-.17.35a.81.81,0,0,0,.77.05c-.06.08,0,.16.07.27s.17-.34.45-.18a1.25,1.25,0,0,1-.25.38c.27-.08.53-.24.8-.31.06.17-.18.25-.28.35.31-.06.79-.1.9-.37l-.19-.1c.11,0,0,.23,0,.27-.27.2-.36-.11-.37-.21l.19-.05c-.15-.59-.76,0-1.14,0l.18-.4-.41.32c-.08-.12-.12-.35.07-.4-.26-.22-.25.13-.47-.11,0,0,0-.06,0-.07l-.28.1c.06-.08,0-.29.14-.22-.47-.27-.8.26-1-.07l0,0c-.67.1-.08.3-.6.63l-.29-.78-.09.3c-.06,0-.2,0-.17-.17-.26.2,0,.14-.12.33-.32-.31-.92.08-1-.4-.13.22.31.19-.05.33-.08-.52-.41.08-.71-.17.11-.27.39-.11.1-.37-.21.45-.59-.12-.85,0,0,.37-.56.14-1,.24,0-.12-.8-.22-1.2-.37v-.06c-.08.36-.49.28-.79.35a.4.4,0,0,1,.23-.4h-.28a.42.42,0,0,1-.34.21l.08-.27c-.38,0-.76.29-1.24.1,0,.26.37.72-.15.89,0-.14,0-.38.11-.44-.05,0-.16.12-.25.06l.21-.23c-.22-.11-.12.19-.29.17,0-.2-.13-.14-.1-.3s.15.08.22,0a.81.81,0,0,1-.52-.31c0,.11,0,.27-.14.29-.38,0-.13-.24-.35-.34-.09.14-.33,0-.34.29-.11,0-.13-.14-.17-.22-.19.13-.91,0-.69.35l.05,0h0c-.64.29-1.32-.17-2-.05v-.09c-.38.11-.84.06-1.11.27a.28.28,0,0,1-.22-.3c-.28.08-.32.18-.73,0,.28-.18-.11-.16.29-.13-.37-.09-.46-.24-.86,0,.13-.26-.29-.31-.46-.23l.26.17a1.46,1.46,0,0,1-.55,0l.09-.33c-.78-.39-1.37.72-2,.06-.2.24.42.15.25.43-.36,0-.74-.51-.85-.5-.49-.18-.43.49-.94.38a.36.36,0,0,1-.24.55c-.35,0-.45-.48-.23-.58s.13,0,.13.06.26-.1.11-.22l0,.12c-.18-.12-.66-.1-.56-.29-.26.12-.1.19.1.25-.46-.16-.71,0-1.18-.08.07.06.15.2.07.2-.68-.11-.29.24-.75.32-.27-.17.08-.44-.38-.26-.29-.11-.08-.31,0-.41-.41.25-.8-.11-1-.14l.22-.11a.87.87,0,0,1-.36.08l.14.23c-.13,0-.24,0-.24-.13-.13.16.12.39-.14.62-.18-.11-.52.15-.6-.16.56.08-.08-.31.38-.39a.45.45,0,0,1-.33,0s0-.07.05-.09c-.54-.25-.22.37-.77.39.06-.18-.14-.33-.23-.28.22,0,.12.29-.07.43-.36-.12-.37.13-.56.12l.21.05c-.06.19-.23.17-.47.24,0-.14.21-.11.12-.16-.25.32-.63-.29-1-.06-.19-.11,0-.33-.2-.4-.41.25-.48-.21-.91,0,.15.23.16.17-.13.43l.72-.23-.45.39c.22,0,.46-.19.59-.16-.21.21-.19.15-.07.34-.33-.33-.58.26-.95,0l0-.59c-.55-.21-.91.39-1.6.3l.23.08c-.08.24-.42.07-.63.18,0-.2-.14-.26-.25-.37,0,.14-.5,0-.52.43L422,275c-.56-.06-.58.62-1.11.59.14-.22-.11-.34.23-.52-.18,0-.34,0-.33.12-.12-.11-.47.31-.65.14-.06.09-.07.3-.26.3a.12.12,0,0,1,0-.1c0,.09-.3.16-.11.36-.6-.55-1.5.22-2-.25a11.58,11.58,0,0,1-1.17.28c0-.06,0-.1.05-.09-.5-.12-.23.6-.79.46-.32-.28.27-.2.08-.3-.16-.64-.65.16-1.06-.17l.08-.05c-.31-.19-.66.32-1.12.33a.19.19,0,0,0,0-.1,2.87,2.87,0,0,1-1.28.71c.11-.27.19-.16.07-.41-.19.07.11.41-.27.53-.15-.12-.45-.19-.52-.46l.36-.07c-.23-.33-.47.08-.68.05v-.16c-.57.13-.52.52-1.14.58l.08.11c-.27.43-.31-.17-.6.16l-.16-.38a5.66,5.66,0,0,1-1.1.62c.18-.32.62-.53.89-.75-.22,0-.74.14-.83.35.08-.05.18-.16.28-.12a1.33,1.33,0,0,1-1,.61c0-.77-1.16,0-1.57-.55-.72.41-1.55.15-2.43.35.41.53-.26.06-.1.65-.2.08-.28.08-.31.05l-.7-.25c-.18-.15.18-.17.14-.3-.47,0-.24-.22-.57-.33.1.21-.11.34-.38.3l.42.21c-.58.44-.65-.4-1.23,0l.16-.23c-.31.17-1.22.21-1.44.77-.07-.06-.18-.21-.05-.28-.8.09-1.64.87-2.31.7l0-.16c-.14.08-.2.33-.41.22,0-.06,0-.16,0-.15s-.34.33-.55.29l.13-.2c-.8,0-1.09.64-1.7.87-.1-.42-.73-.45-1-.44v-.07a8.66,8.66,0,0,0-2.2,1.08c-.62-.35-1.77.21-2.65.15.14,0,.06.33-.07.41s-.46.42-.53,0h.07c-.24-.34-.61-.15-.92-.08l.08.52c-1-.53-2,.84-2.63.29-.16.18-.4.24-.55.42l-.07-.27a5.27,5.27,0,0,0-1.47.35l.08-.23c-.38.08-.25.91-.59,1l-.22-.38c-.65.17-1.4,0-1.93.58,0-.06,0-.18.08-.23-.31.08-1.26.08-1,.6-.12-.36-.68.16-1,.43l0-.28c-.19.42-.17.52-.55.74-.11,0-.15-.19,0-.16-.36,0-.17.33-.61.3l.1-.21c-.34.08-.29.16-.41.42a.59.59,0,0,1-.78-.11c0,.16-.12.41-.33.4a.16.16,0,0,1,0-.2c-.61,0-.72.58-1.18.44,0-.08-.08-.12-.12-.13a4.88,4.88,0,0,1,.77-.22c-.08-.24-.44-.17-.27-.6-.23.28-.58.84-1,.84l-.07-.06,0,0a.26.26,0,0,0-.21.11.8.8,0,0,0-.31,0c-.1-.19-.44,0-.62.08.1.26-.14.29.15.44,0,0,0,0,.13-.09s.06,0,.07-.06v0l.43-.16c-.1.18-.2.34-.45.26a4.59,4.59,0,0,1-.1.51c-.37-.29-.9-.34-1-.54-.49.33-1.24.52-1.41,1.13-.13.12-.22-.08-.3-.14s.17-.11.2-.2c-.26.23-.89.36-.84.73-.44,0,.1-.4-.41-.16l0-.13c-1.23-.18-1.36,1.5-2.76,1.21.1,0,.15,0,.18.07-1.41.18-2.58,1.26-4,1.28-.4,0-.35.28-.51.54l-.19-.25-.25.47c-.43.45-1.2-.31-1.69.41l.16.15c-.26.06-.72.42-.77.19,0,0,0,.22-.14.16l-.06-.14-.5.49c-.51.08-.17-.61-.85-.36-.23.15-.54.71-.41.77a.3.3,0,0,1,.37.13l-.2.17c.14.44.15.95.83,1l.28-.42.22.16-.33.14c.27.12.32-.1.4-.27a.37.37,0,0,0,.26.16l.21-.56c.12.15,0,.4.26.39.1-.26-.32-.31-.08-.55.27.12.28.3.43,0a.2.2,0,0,1,0,.28c.14-.22.49-.27.5-.54.29.17.63-.32.78.09a1,1,0,0,1,.39-.55c-.14.63.68-.24.8.32.07-.53.8-.54,1.13-1,0,0,0,.13-.08.13.26-.06.38,0,.57.07-.11-.38.24-.6.36-.91.43.25,0,.5.2.81-.13-.29.41-.49.21-.7.31.13.24,0,.47.29-.13-.47.19-.15.27-.5.42.1.25.4.56.12C366.53,289.9,366.27,290.18,366.27,290.18Zm8.42-3.83h0l-.17.08Zm.73-.25-.32.09c-.05-.08-.06-.18,0-.2S375.29,286.06,375.42,286.1Zm-2.16-1.33c.1-.08.16,0,.2,0l-.2.1v0A.38.38,0,0,1,373.26,284.77Z" transform="translate(-205.9 -150.5)"/>
        <path class="cls-6" d="M373.16,285.19l0,0,.09,0,0-.1Z" transform="translate(-205.9 -150.5)"/>
        <path class="cls-6" d="M442.83,274.66h0l0,0Z" transform="translate(-205.9 -150.5)"/><polygon class="cls-6" points="179.95 133.12 179.93 133.05 179.88 133.13 179.95 133.12"/>
        <path class="cls-6" d="M447.1,275.69a.18.18,0,0,0,0,.08A.15.15,0,0,0,447.1,275.69Z" transform="translate(-205.9 -150.5)"/>
        <path class="cls-6" d="M448.94,275.82l.26.11A1.23,1.23,0,0,0,448.94,275.82Z" transform="translate(-205.9 -150.5)"/>
        <path class="cls-6" d="M450.36,276a1,1,0,0,0,0-.12h0Z" transform="translate(-205.9 -150.5)"/>
        <path class="cls-6" d="M427.83,276.57l-.06,0C427.65,276.65,427.73,276.62,427.83,276.57Z" transform="translate(-205.9 -150.5)"/>
        <path class="cls-6" d="M434.5,275.6a1.28,1.28,0,0,1-.21.14C434.41,275.76,434.5,275.76,434.5,275.6Z" transform="translate(-205.9 -150.5)"/><polygon class="cls-6" points="214.5 127 214.5 126.99 214.45 127 214.5 127"/>
        <path class="cls-6" d="M434,275.74a.34.34,0,0,0,.31,0A.55.55,0,0,0,434,275.74Z" transform="translate(-205.9 -150.5)"/>
        <path class="cls-6" d="M456.49,276.48l.06,0s0,0,0-.05Z" transform="translate(-205.9 -150.5)"/>
        <path class="cls-6" d="M456.57,276.45l.07,0S456.58,276.42,456.57,276.45Z" transform="translate(-205.9 -150.5)"/>
        <path class="cls-6" d="M456.81,276.37l-.17.06C456.7,276.43,456.77,276.44,456.81,276.37Z" transform="translate(-205.9 -150.5)"/>
        <path class="cls-6" d="M454.62,276.23l0,.1A.13.13,0,0,0,454.62,276.23Z" transform="translate(-205.9 -150.5)"/>
        <path class="cls-6" d="M454.05,276.23c.14,0,.33.23.52.18l0-.08C454.5,276.48,454.19,276.06,454.05,276.23Z" transform="translate(-205.9 -150.5)"/>
        <path class="cls-6" d="M451.73,274.82l.48.11c-.08-.12-.18-.27,0-.28C451.66,274.29,452.36,274.89,451.73,274.82Z" transform="translate(-205.9 -150.5)"/>
        <path class="cls-6" d="M450.25,274.61c.26,0,0-.16,0-.22C450.1,274.49,450.06,274.51,450.25,274.61Z" transform="translate(-205.9 -150.5)"/>
        <path class="cls-6" d="M439.46,274.42l0-.25C439.29,274.2,439.49,274.27,439.46,274.42Z" transform="translate(-205.9 -150.5)"/><polygon class="cls-6" points="231.53 125.28 231.72 125.44 231.81 125.2 231.53 125.28"/><polygon class="cls-6" points="230.27 123.49 230.36 123.45 230.03 123.56 230.27 123.49"/>
        <path class="cls-6" d="M418.07,275.27l.09.3C418.29,275.5,418.28,275.15,418.07,275.27Z" transform="translate(-205.9 -150.5)"/>
        <path class="cls-6" d="M410.34,276.57a.27.27,0,0,0-.45,0C410.06,276.53,410.26,276.62,410.34,276.57Z" transform="translate(-205.9 -150.5)"/><polygon class="cls-6" points="181.31 130.14 181.43 130 181.17 130.16 181.31 130.14"/>
        <path class="cls-6" d="M474.29,302.54c.06-.08,0-.28-.11-.25l-.12.33Z" transform="translate(-205.9 -150.5)"/>
        <path class="cls-6" d="M473.33,301.88a.71.71,0,0,0-.3.73c.19-.31.22-.17.43-.54a.19.19,0,0,1,.22.24c.06-.09.23.08.32-.12a.43.43,0,0,0-.69-.09C473.25,302,473.31,301.94,473.33,301.88Z" transform="translate(-205.9 -150.5)"/>
        <path class="cls-6" d="M458.85,300.69l.09,0A.25.25,0,0,0,458.85,300.69Z" transform="translate(-205.9 -150.5)"/>
        <path class="cls-6" d="M449.85,300.24a.11.11,0,0,0,.11-.07C449.89,300.19,449.84,300.21,449.85,300.24Z" transform="translate(-205.9 -150.5)"/>
        <path class="cls-6" d="M448.32,299.85l.09,0S448.34,299.82,448.32,299.85Z" transform="translate(-205.9 -150.5)"/>
        <path class="cls-6" d="M458.85,300.69l-.24-.11C458.59,300.69,458.73,300.66,458.85,300.69Z" transform="translate(-205.9 -150.5)"/>
        <path class="cls-6" d="M471.29,302.57a.26.26,0,0,0,.13-.08l-.12,0Z" transform="translate(-205.9 -150.5)"/>
        <path class="cls-6" d="M462.82,300.59h.08l.06-.13Z" transform="translate(-205.9 -150.5)"/>
        <path class="cls-6" d="M465.87,300.67c-.07,0-.11.27-.14.39a.29.29,0,0,1,.16-.19A.83.83,0,0,0,465.87,300.67Z" transform="translate(-205.9 -150.5)"/>
        <path class="cls-6" d="M470.66,301.4l.09,0Z" transform="translate(-205.9 -150.5)"/>
        <path class="cls-6" d="M460.65,300.43a.29.29,0,0,0,0-.1A.17.17,0,0,0,460.65,300.43Z" transform="translate(-205.9 -150.5)"/>
        <path class="cls-6" d="M377.8,314.28l0,0S377.78,314.28,377.8,314.28Z" transform="translate(-205.9 -150.5)"/><polygon class="cls-6" points="168.14 164.1 168.18 164.06 168.11 163.92 168.14 164.1"/>
        <path class="cls-6" d="M445.51,299.45h0C445.59,299.43,445.55,299.43,445.51,299.45Z" transform="translate(-205.9 -150.5)"/>
        <path class="cls-6" d="M419.61,300.73c.32.21-.44.37,0,.6C419.59,301.22,420,300.85,419.61,300.73Z" transform="translate(-205.9 -150.5)"/>
        <path class="cls-6" d="M471.21,302.53h-.12A.24.24,0,0,0,471.21,302.53Z" transform="translate(-205.9 -150.5)"/>
        <path class="cls-6" d="M419.64,301.33h0l.05,0Z" transform="translate(-205.9 -150.5)"/>
        <path class="cls-6" d="M439,299.64a.67.67,0,0,0,.06.12A.17.17,0,0,0,439,299.64Z" transform="translate(-205.9 -150.5)"/>
        <path class="cls-6" d="M443.85,300l-.12,0Z" transform="translate(-205.9 -150.5)"/>
        <path class="cls-6" d="M436.5,300.08c-.07,0-.09-.06-.18,0l0,0S436.42,300,436.5,300.08Z" transform="translate(-205.9 -150.5)"/>
        <path class="cls-6" d="M433.88,300.15l.05.06.09,0Z" transform="translate(-205.9 -150.5)"/>
        <path class="cls-6" d="M384.93,311.06a1,1,0,0,1-.2-.2C384.83,311,384.51,311.24,384.93,311.06Z" transform="translate(-205.9 -150.5)"/>
        <path class="cls-6" d="M471.3,302.42c0,.07-.05.1-.09.11h.09A.17.17,0,0,0,471.3,302.42Z" transform="translate(-205.9 -150.5)"/>
        <path class="cls-6" d="M436.44,302.3l-.41,0A1.78,1.78,0,0,0,436.44,302.3Z" transform="translate(-205.9 -150.5)"/>
        <path class="cls-6" d="M402.65,305.74l-.09.05A.11.11,0,0,0,402.65,305.74Z" transform="translate(-205.9 -150.5)"/>
        <path class="cls-6" d="M434.81,302.34a.8.8,0,0,0-.24-.19s0,.05,0,.08Z" transform="translate(-205.9 -150.5)"/>
        <path class="cls-6" d="M384.72,310.86h0Z" transform="translate(-205.9 -150.5)"/>
        <path class="cls-6" d="M382.47,312.49c.36-.15,0-.41,0-.63.39-.28.3.16.52.27.23-.2.31-.6.51-.66,0,0,.09,0,.07.14.18-.38.85-.34,1-.82a.23.23,0,0,1,.07.07,1.37,1.37,0,0,1-.23-.45c.16-.07.22-.34.37-.14-.11,0-.08.13-.1.22l.14-.17c.27.27-.2.21-.1.45.29-.24.58-.66.87-.67.17.3-.56.34-.11.49l-.44,0c.49.38-.26.05.23.48.55-.11.51-.39,1.07-.49.05-.22-.14-.25-.08-.47.63-.58.88.59,1.27,0,.07-.26,0-.69.44-.61v.41c.52-.15.11-.63.73-.57,0,.17-.36.26-.27.28.44.16.17-.3.44-.39l.16.3c.53-.23,1.06-.66,1.65-.92,0,.11-.08.25.1.3a5.17,5.17,0,0,1,2.45-.51l.2-.37c.06,0,.16.09.1.17.32,0,0-.18.07-.33a.14.14,0,0,1,.19.21c.44-.39,1.31-1,1.94-.79l-.08.11c.45,0,.31-.71.78-.55l-.06.07c.95-.12,1.9-.66,2.72-.39,0-.44,1,0,.88-.63.59.16.47.3,1.25.31.21,0,.22-.42.45-.54l.08.3.26-.38.26.32.21-.13a.26.26,0,0,1-.23-.18.82.82,0,0,1,1,.17l.8-.44c0,.12-.12.19-.22.3.39-.41.15.3.51-.08-.07-.05,0-.18,0-.25a1.34,1.34,0,0,0,1.06-.09l0,.22c.65-.07,1.33-.36,2-.49a.27.27,0,0,1-.08-.5l.15.31c.1-.23-.25-.09,0-.38.27,0,.25.34.11.47l.31-.17c0,.09,0,.16,0,.28.1-.22.62.23.75-.15l0,.09c.72-.12,1-.29,1.61-.4,0-.28.2-.26.34-.51a6,6,0,0,0,1.48.07c.34-.2.07-.26.21-.45.07.25.58.15.34.38a7.32,7.32,0,0,0,1.55-.49c-.1-.09-.2-.13-.16-.22a.27.27,0,0,1,.34.19l0,0c.84-.49,2.15.47,2.79-.14l0,0,.71-.36c.34,0-.18.22.09.35.74-.52,1.26-.08,1.88-.44.58.7,1.79-.22,2.52.2l-.05-.18c.16-.19.22.09.35.11,0-.13-.2-.14-.1-.24,1.48-.35,3.12,0,4.67.07.56,0,.26-.94,1-.56l-.19.34c1.12-.47,2.33-.12,3.43-.5-.07.08-.06.18-.17.18.24.23.87,0,.87-.22.17,0,0,.18.15.27s.59-.33.72-.1c0,0-.06.08-.11.1.15-.12.72,0,.57-.26.42.12.79-.15,1.13,0,.21-.31.72.13.78-.31,0,.46.74.34,1,.13-.09.14.23.14.13.33.3,0,.58-.1.52-.34.57.54,1.11-.45,1.44.24a16,16,0,0,1,2.53-.54c0,.45-.89,0-.85.52.76-.19,1.2-.58,2-.48.19.06-.12.2-.18.28.76-.19,1.48,0,2.16-.2,0,0-.07.08-.14.12.13,0,.31.06.3-.14l-.13.05c-.22-.29.53-.61.56-.77-.23.58.67.15.3.89.09,0,.21-.14.19-.27.13,0,.17.12,0,.27.49-.11.32-.33.75-.32,0,.1-.09.14-.13.26a.87.87,0,0,1,.81-.3c0,.06,0,.14-.09.14.64,0,1.09-.5,1.78-.31-.21.43.24.15.27.52l.38-.1-.15-.19c.33,0,.62-.25.9-.12l-.25.15.62-.06-.35-.15c.34-.18,0-.47.41-.36-.09,0,.33,0,.5.24h0a.54.54,0,0,1,.57-.14c.06.12-.06.41,0,.49.17-.31.77-.07,1-.4a.39.39,0,0,0-.05.32l.14-.25c.15.08.17.12.14.28.45.06-.13-.48.4-.26,0,0,0,.06-.11.09.54.13,1.06-.13,1.55,0,.14.38-.44.08-.28.4a10.73,10.73,0,0,1,2.21-.29l-.13-.05c.11-.52.51.28.87.05-.09,0-.12.29-.1.23a4.92,4.92,0,0,0,1.72-.24l-.1.13a6,6,0,0,0,1,.18c.1-.13.27-.1.17-.31.91.82,1.81-.34,2.62.34-.1,0-.24.11-.16.11l.71-.09c0-.23-.09-.14-.23-.33a.61.61,0,0,1,.48-.22c-.33.14,0,.37.12.5,0-.07,0-.14,0-.22.35.43.08-.46.58-.16l0,.12c.19-.05.37-.21.57-.16.07.27-.21.11-.23.33.29,0,.59-.48.84-.2-.13.07-.3.06-.43.13.27.33.31.25.52.31h0l.47.17-.12-.1c.4-.67.74-.09,1.25-.52-.49.41-.09.24-.14.55.12.09.3.19.24.27.24-.23.37.21.71-.13,0,.1.25,0,.18.26.31-.06-.06-.17,0-.29.48-.31,1.06.46,1.74,0,.58-.16.7-.48,1.24-.62.17.17-.17.35-.17.35a.83.83,0,0,0,.78,0c-.06.08,0,.16.07.27s.16-.34.44-.19a1.21,1.21,0,0,1-.24.38c.26-.07.53-.24.79-.32.07.18-.17.25-.27.36.3-.06.78-.12.89-.38l-.19-.11c.11,0,.05.24,0,.28-.26.2-.36-.11-.37-.21l.19-.05c-.16-.58-.76.05-1.14,0l.18-.41-.41.33c-.07-.11-.12-.35.07-.4-.26-.22-.25.13-.47-.11a0,0,0,0,1,0-.07l-.27.11c.06-.08,0-.29.13-.22-.46-.27-.78.27-.95-.05l0,0c-.67.11-.07.3-.59.64l-.3-.77-.08.3c-.07,0-.2,0-.17-.16-.26.19,0,.13-.12.32-.31-.29-.91.09-1-.4-.13.22.3.19-.06.33-.07-.52-.41.08-.7-.18.11-.26.39-.11.1-.36-.2.44-.58-.13-.84-.06,0,.37-.56.13-1,.23,0-.12-.79-.23-1.18-.38v-.06c-.09.36-.5.27-.8.34a.41.41,0,0,1,.25-.4h-.28a.47.47,0,0,1-.35.21l.08-.27c-.37,0-.76.29-1.23.08,0,.26.35.73-.16.88,0-.14,0-.38.11-.43,0,0-.16.11-.24.05l.21-.23c-.22-.11-.12.19-.3.17,0-.2-.12-.15-.09-.31s.15.09.22,0a.76.76,0,0,1-.5-.33c0,.12,0,.27-.16.29-.37,0-.12-.24-.33-.35-.09.13-.33,0-.34.27-.11,0-.13-.14-.17-.22-.19.12-.9,0-.69.32l0,0,0,0h0c-.64.26-1.3-.22-1.93-.12v-.09c-.38.1-.84,0-1.11.24-.11,0-.26-.19-.2-.31-.29.07-.33.17-.74,0,.3-.16-.09-.16.3-.12-.37-.1-.45-.25-.85,0,.14-.25-.27-.32-.45-.25l.25.19a1.67,1.67,0,0,1-.55,0l.11-.33c-.75-.42-1.39.65-2,0-.2.23.41.17.23.44-.35-.05-.71-.54-.82-.54-.47-.19-.46.48-.95.34a.37.37,0,0,1-.27.54c-.35-.05-.42-.51-.19-.6s.12,0,.12.07.26-.08.12-.22l0,.12c-.18-.12-.66-.12-.54-.31-.27.1-.12.19.08.26-.45-.19-.71,0-1.17-.15.08.07.14.21.07.21-.68-.16-.31.22-.77.26-.25-.18.1-.43-.36-.28-.28-.13-.06-.32.06-.41-.43.22-.79-.16-1-.21l.22-.09a.74.74,0,0,1-.35,0l.12.24c-.13,0-.24-.05-.24-.14-.13.15.1.39-.17.6-.17-.12-.53.12-.58-.19.54.11-.06-.32.4-.36a.54.54,0,0,1-.33,0s0-.07.06-.09c-.53-.28-.25.36-.79.35.07-.18-.12-.34-.21-.3.22,0,.1.3-.1.43-.35-.14-.38.1-.56.09l.21.06c-.08.18-.25.16-.49.21,0-.14.22-.09.13-.16-.27.32-.61-.32-1-.11-.18-.12,0-.33-.17-.42-.42.23-.46-.24-.9-.05.13.24.15.18-.16.42l.72-.17-.46.35c.22,0,.46-.16.59-.12-.22.2-.2.14-.09.34-.3-.36-.6.21-.94,0v-.59c-.52-.26-.92.31-1.6.16l.22.11c-.09.23-.42,0-.64.13,0-.2-.12-.27-.22-.39,0,.14-.49,0-.55.39l-.31-.26c-.55-.09-.61.58-1.14.52.16-.22-.09-.35.26-.51-.17,0-.33,0-.33.1-.11-.12-.48.28-.65.09-.07.09-.09.3-.29.29a.16.16,0,0,1,0-.1c0,.09-.31.14-.13.35-.56-.6-1.51.09-2-.42a10.94,10.94,0,0,1-1.18.18c0-.06,0-.1.06-.08-.49-.16-.27.58-.83.4-.29-.31.29-.19.11-.3-.1-.65-.66.12-1-.25l.09,0c-.3-.21-.68.28-1.14.25a.16.16,0,0,0,0-.1,2.73,2.73,0,0,1-1.32.61c.12-.26.19-.15.09-.4-.2,0,.08.41-.31.51-.13-.13-.43-.24-.48-.51l.37,0c-.21-.34-.48,0-.68,0v-.16c-.56.09-.55.48-1.16.49l.07.11c-.31.41-.3-.2-.61.12l-.13-.39a6.12,6.12,0,0,1-1.14.54,3.62,3.62,0,0,1,.93-.69c-.22,0-.74.09-.84.29.09,0,.19-.15.28-.09a1.31,1.31,0,0,1-1,.53c0-.77-1.15-.11-1.52-.67-.75.36-1.55,0-2.45.15.38.57-.26,0-.14.65-.21.06-.29.06-.31,0L419,301c-.17-.16.18-.16.15-.29-.46,0-.22-.24-.54-.37.09.21-.13.33-.4.28l.4.24c-.6.39-.61-.45-1.22-.06l.18-.21c-.32.14-1.23.13-1.49.66-.07-.06-.17-.22,0-.28-.81,0-1.7.75-2.35.53l0-.16c-.15.06-.22.31-.43.19,0-.06,0-.16,0-.15s-.35.31-.56.26l.14-.19c-.8-.08-1.12.58-1.75.78-.06-.44-.69-.49-1-.51v-.07a8.06,8.06,0,0,0-2.26.94c-.6-.4-1.77.12-2.65,0,.14.06.05.35-.09.42s-.47.4-.52,0h.07c-.23-.36-.6-.18-.91-.12l0,.52c-1-.57-2,.74-2.64.16-.16.17-.41.22-.57.4l-.05-.28a5.27,5.27,0,0,0-1.48.32l.09-.23c-.38.07-.28.91-.62,1l-.21-.39c-.65.16-1.4,0-1.94.52,0-.06,0-.18.08-.23-.31.08-1.26,0-1,.58-.1-.36-.68.14-1,.4l0-.29c-.2.43-.18.53-.56.75-.11,0-.15-.19,0-.16-.36-.05-.18.32-.61.3l.1-.22c-.34.08-.29.17-.41.42a.59.59,0,0,1-.78-.11c0,.16-.12.41-.33.4s0-.16,0-.2c-.61,0-.72.57-1.18.43a.29.29,0,0,0-.12-.14,4.51,4.51,0,0,1,.77-.2c-.07-.25-.44-.17-.27-.61-.22.28-.58.84-1,.84l-.08-.07,0,0a.29.29,0,0,0-.21.11,1.06,1.06,0,0,0-.31,0c-.1-.19-.44,0-.62.07.1.27-.14.3.15.45,0,0,0,0,.13-.09s.06,0,.07-.06v0l.43-.16c-.1.18-.2.34-.45.26a4.59,4.59,0,0,1-.1.51c-.37-.3-.9-.34-1-.54-.48.34-1.23.55-1.38,1.16-.13.12-.23-.08-.31-.14s.17-.11.19-.19c-.25.23-.88.37-.82.74-.44,0,.09-.4-.41-.15l0-.13c-1.24-.15-1.32,1.52-2.73,1.26.1,0,.15,0,.19.07-1.41.23-2.51,1.38-4,1.47-.4.06-.34.3-.48.56l-.2-.24-.22.49c-.41.47-1.23-.26-1.67.5l.17.14c-.25.08-.69.48-.75.25,0,.05,0,.23-.12.18l-.08-.14-.45.53c-.5.12-.22-.59-.88-.29-.22.18-.48.75-.34.8a.32.32,0,0,1,.38.1l-.19.18c.18.44.24.94.92,1l.24-.44.22.14-.3.17c.27.1.3-.12.36-.3a.4.4,0,0,0,.27.14l.17-.58c.12.14,0,.41.29.38.07-.27-.35-.29-.13-.55.27.1.3.28.43,0a.21.21,0,0,1,0,.28c.12-.23.46-.31.45-.58.3.14.6-.37.77,0a1.14,1.14,0,0,1,.35-.56c-.09.62.67-.27.82.28,0-.54.76-.58,1.06-1,0,.05,0,.14-.07.13.25-.07.38,0,.57.05-.13-.37.2-.61.3-.92.44.22,0,.5.25.79-.14-.28.37-.5.17-.71.32.12.24,0,.48.28-.15-.47.17-.17.24-.52.41.08.26.39.55.1C382.72,312.2,382.47,312.49,382.47,312.49Zm8.26-4h0l-.17.07Zm.73-.24-.32.09c-.06-.08-.06-.18,0-.2S391.33,308.25,391.46,308.29ZM389.3,307c.1-.08.16,0,.2,0l-.2.1v0A.38.38,0,0,1,389.3,307Z" transform="translate(-205.9 -150.5)"/>
        <path class="cls-6" d="M389.2,307.37l0,0,.09,0,0-.1Z" transform="translate(-205.9 -150.5)"/>
        <path class="cls-6" d="M459,300.74h0s0,0,0,0A.08.08,0,0,1,459,300.74Z" transform="translate(-205.9 -150.5)"/><polygon class="cls-6" points="195.94 155.55 195.93 155.48 195.88 155.56 195.94 155.55"/>
        <path class="cls-6" d="M463.18,301.88a.18.18,0,0,0,.05.08A.15.15,0,0,0,463.18,301.88Z" transform="translate(-205.9 -150.5)"/>
        <path class="cls-6" d="M465,302l.25.11A1.47,1.47,0,0,0,465,302Z" transform="translate(-205.9 -150.5)"/>
        <path class="cls-6" d="M466.42,302.23a.76.76,0,0,0,0-.11h0Z" transform="translate(-205.9 -150.5)"/>
        <path class="cls-6" d="M443.94,301.9h-.06C443.76,302,443.84,301.94,443.94,301.9Z" transform="translate(-205.9 -150.5)"/>
        <path class="cls-6" d="M450.64,301.33a1.79,1.79,0,0,1-.22.13C450.54,301.48,450.63,301.49,450.64,301.33Z" transform="translate(-205.9 -150.5)"/><polygon class="cls-6" points="230.59 151.8 230.59 151.8 230.54 151.8 230.59 151.8"/>
        <path class="cls-6" d="M450.11,301.44a.38.38,0,0,0,.31,0A.55.55,0,0,0,450.11,301.44Z" transform="translate(-205.9 -150.5)"/>
        <path class="cls-6" d="M472.55,302.66l.07,0a.09.09,0,0,1,0-.05Z" transform="translate(-205.9 -150.5)"/>
        <path class="cls-6" d="M472.63,302.63l.07,0S472.64,302.6,472.63,302.63Z" transform="translate(-205.9 -150.5)"/>
        <path class="cls-6" d="M472.87,302.54l-.17.06C472.76,302.61,472.83,302.62,472.87,302.54Z" transform="translate(-205.9 -150.5)"/>
        <path class="cls-6" d="M470.68,302.44l0,.1A.22.22,0,0,0,470.68,302.44Z" transform="translate(-205.9 -150.5)"/>
        <path class="cls-6" d="M470.11,302.44c.14,0,.33.23.52.18l0-.08C470.56,302.69,470.25,302.28,470.11,302.44Z" transform="translate(-205.9 -150.5)"/>
        <path class="cls-6" d="M467.8,301.07l.47.1c-.08-.11-.18-.26,0-.28C467.72,300.54,468.42,301.14,467.8,301.07Z" transform="translate(-205.9 -150.5)"/>
        <path class="cls-6" d="M466.32,300.84c.26,0,0-.16,0-.22C466.18,300.71,466.14,300.73,466.32,300.84Z" transform="translate(-205.9 -150.5)"/>
        <path class="cls-6" d="M455.62,300.4l0-.26C455.46,300.17,455.65,300.24,455.62,300.4Z" transform="translate(-205.9 -150.5)"/><polygon class="cls-6" points="247.64 151.16 247.82 151.32 247.92 151.09 247.64 151.16"/><polygon class="cls-6" points="246.48 149.3 246.56 149.27 246.23 149.35 246.48 149.3"/>
        <path class="cls-6" d="M434.34,299.89l.07.31C434.54,300.14,434.56,299.79,434.34,299.89Z" transform="translate(-205.9 -150.5)"/>
        <path class="cls-6" d="M426.58,300.58c-.1-.15-.32-.24-.45-.08C426.31,300.51,426.49,300.62,426.58,300.58Z" transform="translate(-205.9 -150.5)"/><polygon class="cls-6" points="197.42 152.65 197.55 152.51 197.28 152.66 197.42 152.65"/>
        <path class="cls-6" d="M762.29,260.89c.14-.1,0-.28-.38-.21l-.27.35Z" transform="translate(-205.9 -150.5)"/>
        <path class="cls-6" d="M759.39,260.5c-.48.2-1,.52-.71.8.48-.36.61-.23,1.11-.65.42-.07.75.05.69.18.14-.1.67,0,.87-.21a2.85,2.85,0,0,0-2,.1C759.21,260.66,759.36,260.56,759.39,260.5Z" transform="translate(-205.9 -150.5)"/>
        <path class="cls-6" d="M719.29,252.58l.23.13A1.57,1.57,0,0,0,719.29,252.58Z" transform="translate(-205.9 -150.5)"/>
        <path class="cls-6" d="M696.47,241.21c.17.09.26.1.28.08C696.58,241.22,696.45,241.17,696.47,241.21Z" transform="translate(-205.9 -150.5)"/>
        <path class="cls-6" d="M692.87,238.73l.21.15A.4.4,0,0,0,692.87,238.73Z" transform="translate(-205.9 -150.5)"/>
        <path class="cls-6" d="M719.29,252.58l-.6-.35C718.61,252.31,719,252.43,719.29,252.58Z" transform="translate(-205.9 -150.5)"/>
        <path class="cls-6" d="M753.68,261.46a1.34,1.34,0,0,0,.38-.08,2.07,2.07,0,0,1-.35,0A.13.13,0,0,1,753.68,261.46Z" transform="translate(-205.9 -150.5)"/>
        <path class="cls-6" d="M730,256l.2.06a.88.88,0,0,0,.2-.09Z" transform="translate(-205.9 -150.5)"/>
        <path class="cls-6" d="M738.31,258.08c-.19-.05-.31.21-.41.32a.65.65,0,0,1,.46-.11A.32.32,0,0,0,738.31,258.08Z" transform="translate(-205.9 -150.5)"/>
        <path class="cls-6" d="M751.77,260.25l.24,0Z" transform="translate(-205.9 -150.5)"/>
        <path class="cls-6" d="M724.14,254.06a.28.28,0,0,0,0-.13A.14.14,0,0,0,724.14,254.06Z" transform="translate(-205.9 -150.5)"/>
        <path class="cls-6" d="M502.08,232.35a.05.05,0,0,0,0,0C502,232.36,502,232.38,502.08,232.35Z" transform="translate(-205.9 -150.5)"/>
        <path class="cls-6" d="M492.64,236l.12-.08c0-.05,0-.1-.05-.15Z" transform="translate(-205.9 -150.5)"/>
        <path class="cls-6" d="M686.19,234.35l0,0C686.42,234.45,686.31,234.4,686.19,234.35Z" transform="translate(-205.9 -150.5)"/>
        <path class="cls-6" d="M619.65,203.36c.76.43-1.4,0-.24.56C619.32,203.79,620.63,203.75,619.65,203.36Z" transform="translate(-205.9 -150.5)"/>
        <path class="cls-6" d="M753.46,261.42l-.36,0A2.64,2.64,0,0,0,753.46,261.42Z" transform="translate(-205.9 -150.5)"/>
        <path class="cls-6" d="M619.41,203.92h0l.12.06Z" transform="translate(-205.9 -150.5)"/>
        <path class="cls-6" d="M670.32,225a.53.53,0,0,0,.1.2S670.41,225.1,670.32,225Z" transform="translate(-205.9 -150.5)"/>
        <path class="cls-6" d="M681.88,232.41l-.27-.21A2,2,0,0,0,681.88,232.41Z" transform="translate(-205.9 -150.5)"/>
        <path class="cls-6" d="M663.94,221.74a1.32,1.32,0,0,0-.43-.26l0,.06A.77.77,0,0,1,663.94,221.74Z" transform="translate(-205.9 -150.5)"/>
        <path class="cls-6" d="M657.42,218.16a.94.94,0,0,0,.09.12l.22.09Z" transform="translate(-205.9 -150.5)"/>
        <path class="cls-6" d="M521.67,221.23a1,1,0,0,1-.42-.06C521.44,221.29,520.53,221.89,521.67,221.23Z" transform="translate(-205.9 -150.5)"/>
        <path class="cls-6" d="M753.68,261.3a.28.28,0,0,1-.22.12h.25S753.74,261.33,753.68,261.3Z" transform="translate(-205.9 -150.5)"/>
        <path class="cls-6" d="M662.58,223.52l-1-.61C661.86,223.09,662.22,223.32,662.58,223.52Z" transform="translate(-205.9 -150.5)"/>
        <path class="cls-6" d="M570,200.93l-.26.06A.53.53,0,0,0,570,200.93Z" transform="translate(-205.9 -150.5)"/>
        <path class="cls-6" d="M658.52,221.27a2.53,2.53,0,0,0-.49-.49.39.39,0,0,0-.15,0Z" transform="translate(-205.9 -150.5)"/>
        <path class="cls-6" d="M521.24,221.17h0Z" transform="translate(-205.9 -150.5)"/>
        <path class="cls-6" d="M514.8,225.55c1-.54.28-.58.39-.88,1.12-.75.67-.06,1.16-.12a20.5,20.5,0,0,1,1.63-1.4c.07,0,.19,0,.1.13.63-.69,2.28-1.3,3-2.12a.34.34,0,0,1,.16,0,.56.56,0,0,1-.38-.37c.44-.25.71-.66,1-.54-.28.15-.25.24-.34.38l.41-.35c.58.07-.57.46-.45.68a15.49,15.49,0,0,1,2.49-1.73c.3.21-1.56,1-.5.75l-1.12.48c1.07,0-.66.33.36.41,1.44-.69,1.48-1,2.92-1.72.22-.34-.24-.19,0-.53,1.82-1.41,2-.12,3.21-1.34.27-.41.21-.87,1.36-1.25l-.17.54c1.37-.73.51-.92,2-1.49-.18.28-1,.71-.78.64,1.06-.25.54-.57,1.26-.95l.31.22c1.43-.82,2.92-1.88,4.52-2.77,0,.13-.28.37.15.27a37.25,37.25,0,0,1,6.49-2.94l.64-.62c.18-.08.39,0,.22.1.83-.26,0-.18.29-.46s.66-.12.41.09a18.23,18.23,0,0,1,5.35-2.56l-.25.2c1.19-.36,1.09-1.07,2.26-1.24l-.18.13c2.56-.85,5.32-2.07,7.43-2.18.25-.54,2.61-.51,2.64-1.13a23,23,0,0,0,3.31-.13c.56-.08.77-.52,1.46-.7l.07.3.9-.49.57.29.65-.17c-.27,0-.58-.06-.55-.15a4.53,4.53,0,0,1,2.59,0c.8-.17,1.62-.32,2.43-.46,0,.12-.45.19-.77.3,1.29-.41.26.3,1.44-.06-.16-.06.08-.19.1-.25a12.34,12.34,0,0,0,3,0l-.19.22c1.83,0,3.87-.1,5.93,0-.73-.13-.55-.49.06-.5l.23.34c.4-.18-.63-.16.19-.36.77.08.5.4,0,.48l.94-.06c0,.1-.17.14-.23.26.39-.18,1.59.43,2.17.13l.05.1c2.06.16,3,.15,4.69.3.06-.27.71-.14,1.24-.31,1.23.23,2.58.59,4.07.77,1.06,0,.34-.2.83-.31,0,.27,1.53.43.74.51,1.79.21,2.28.25,4.57.39-.23-.14-.5-.22-.34-.29.41,0,.91.25.83.36h-.11c2.6,0,5.7,1.69,7.78,1.56h-.11l2.12.13c.94.24-.61.08.06.37,2.32,0,3.5.81,5.39,1,1.23,1.06,5,1.18,6.75,2.19l-.06-.2c.54,0,.56.26.91.41,0-.15-.48-.31-.16-.31a75.29,75.29,0,0,1,12.37,4.58c1.46.64,1.18-.51,2.89.65l-.65.09c3.15.83,6.05,2.63,9.05,3.7-.2,0-.25.07-.53-.06a4.46,4.46,0,0,0,2.32.93c.43.24,0,.21.25.44.53.42,1.64.48,1.85.85,0,.07-.2,0-.32-.05.45.08,1.8,1,1.55.53,1,.67,2.08,1,2.84,1.55.69,0,1.72,1.11,2.1.82-.29.36,1.66,1.32,2.42,1.52-.29,0,.5.45.15.47.75.42,1.48.74,1.46.46,1.11,1.25,3,1.23,3.41,2.27,2.33,1.09,4.45,2.17,6.48,3.27-.3.34-2.2-1.28-2.36-.82a35.4,35.4,0,0,1,5,2.5c.45.35-.37,0-.57,0,2,1,3.6,2.23,5.39,3,0,0-.23,0-.42-.11.34.19.73.52.8.32l-.35-.14c-.37-.58,1.63.25,1.77.16-.86.16,1.57,1.12.3,1.22.24.1.56.18.58,0,.3.23.36.36,0,.29,1.23.62.93.18,2,.82-.05.09-.29,0-.46,0a5.64,5.64,0,0,1,2.15.94c-.08,0,0,.14-.29,0,1.58.9,2.91,1.14,4.54,2.29-.72.08.51.47.42.84l1,.44-.28-.37a24.62,24.62,0,0,1,2.3,1.15l-.68-.21,1.56.81-.79-.62c.92.3.14-.46,1.17.25-.24-.09.82.46,1.13.89h0a4.11,4.11,0,0,1,1.5.65c.11.19-.32.3-.26.42.56-.05,2,1,2.64,1-.21,0-.31.14-.27.21l.46,0c.34.27.38.33.25.44,1.13.64-.15-.61,1.13.28-.12,0-.08,0-.33-.06,1.34.81,2.74,1.25,4,2,.22.52-1.16-.47-.87,0,1.88.86,4,1.48,5.82,2.38l-.32-.19c.47-.38,1.23.88,2.27,1-.25-.06-.42.14-.34.11a31.13,31.13,0,0,0,4.61,1.63l-.29,0c.7.41,2,.85,2.73,1.22.29,0,.75.17.54-.12a10,10,0,0,0,3.58,1.47,10.41,10.41,0,0,1,3.44,1.19c-.27-.09-.68-.1-.46,0,.66.16,1.31.35,2,.48-.09-.26-.22-.2-.58-.49a3.54,3.54,0,0,1,1.35.12c-.92-.09-.1.36.25.59,0-.08.11-.12.09-.2.91.68.3-.4,1.62.26l-.11.09A13.49,13.49,0,0,1,734,258c.17.31-.59,0-.69.19.81.17,1.7-.12,2.36.31-.36,0-.85-.12-1.2-.13a3.38,3.38,0,0,0,1.4.62l-.06,0,1.33.46-.33-.16c1.15-.45,2.08.28,3.52.1-1.4.17-.26.2-.42.48.34.15.85.35.68.4.69-.11,1.05.39,2,.16,0,.11.69.11.51.33.86.05-.18-.19-.09-.3a7.13,7.13,0,0,1,2.26.34,7.26,7.26,0,0,0,2.7.19,9.82,9.82,0,0,0,1.78-.19,10.65,10.65,0,0,1,1.69-.26c.5.17-.43.34-.43.34a6.61,6.61,0,0,0,2.21.09c-.16.08,0,.16.24.27.62,0,.42-.34,1.23-.2a2.28,2.28,0,0,1-.62.4c.74-.1,1.46-.3,2.22-.4.2.17-.45.27-.72.38a7.12,7.12,0,0,0,2.46-.46l-.55-.09c.31,0,.17.23-.05.28-.73.23-1.06-.07-1.11-.17l.54-.07c-.56-.57-2.16.14-3.25.1l.45-.41c-.37.12-.74.2-1.11.31-.24-.12-.39-.36.14-.4-.76-.23-.69.12-1.34-.13-.07,0,0-.06,0-.07l-.76.09c.15-.08-.11-.3.35-.22-1.34-.27-2.2.21-2.69-.17h.12c-1.89,0-.21.29-1.65.51l-.87-.83-.22.28c-.19,0-.57-.09-.49-.2-.74.1.11.15-.33.28-.89-.41-2.57-.24-2.71-.75-.37.19.86.31-.16.33-.2-.55-1.15-.08-2-.49.3-.22,1.07.08.28-.32-.59.35-1.61-.41-2.33-.46-.06.17-.45.14-1,0s-1.18-.3-1.78-.38c.1-.11-2.18-.68-3.21-1.15l.05-.05c-.31.3-1.41-.08-2.24-.24.09-.2.26-.24.73-.21l-.76-.21a2,2,0,0,1-1-.06l.26-.2a19.55,19.55,0,0,1-3.35-.93c-.15.22.81,1-.62.73,0-.15,0-.39.4-.33a1.61,1.61,0,0,1-.67-.16l.62,0c-.56-.29-.38.09-.84-.1.08-.18-.29-.26-.18-.38s.38.22.59.21a4.06,4.06,0,0,1-1.27-.77c0,.12-.09.25-.48.13-1-.34-.26-.34-.8-.65-.29.05-.87-.32-1,0-.29-.1-.3-.25-.38-.37-.56-.08-2.38-.9-1.93-.38l.12.07-.08,0h0c-1.79-.37-3.39-1.57-5.07-2.16l.05-.09c-1-.3-2.18-.91-3-1-.29-.13-.6-.47-.43-.52a5.43,5.43,0,0,1-1.88-.87c.8.2-.19-.26.8.25a5.78,5.78,0,0,0-2.19-1c.46-.06-.57-.63-1-.79l.58.49a15,15,0,0,1-1.39-.69l.39-.18c-1.72-1.35-3.78-1.16-4.9-2.55-.61-.07,1,.7.38.7a16.33,16.33,0,0,1-1.8-1.58c-1.11-.8-1.35-.17-2.53-1,.1.19.1.55-.89.12s-.82-1-.22-.8c.21.1.29.19.26.22.3.12.69.29.42,0l-.18,0c-.36-.35-1.56-1-1.18-1-.71-.27-.38,0,.07.34-1-.77-1.72-1-2.8-1.75.15.16.25.37.07.27-1.59-1.1-.85-.23-2-.84-.55-.54.44-.24-.76-.78-.63-.52,0-.36.33-.28a9.47,9.47,0,0,1-2.41-1.65l.59.24a6,6,0,0,1-.88-.47l.18.39c-.29-.22-.56-.39-.5-.47-.41-.06,0,.49-.71.28-.37-.35-1.36-.66-1.34-1,1.27.89,0-.36,1.16.28a3.63,3.63,0,0,1-.79-.49c0-.06.08,0,.17,0-1.13-1-.77,0-2.08-.85.26-.05-.13-.47-.37-.57.53.32.1.41-.45.23-.78-.63-1-.47-1.41-.75l.47.36c-.26,0-.67-.23-1.29-.54,0-.15.58.25.4.07-.81-.13-1.31-1.18-2.33-1.55-.36-.36.13-.31-.19-.6-1.15-.43-1-.88-2.16-1.37.19.39.27.37-.61.12l1.86.92-1.32-.39c.54.33,1.21.55,1.51.78-.65-.16-.56-.18-.41.15-.54-.75-1.55-.7-2.27-1.41l.33-.49c-1.14-1-2.41-1.11-4-2.22l.48.41c-.35.06-1-.59-1.63-.82.15-.14-.15-.4-.31-.65,0,.14-1.21-.72-1.56-.47l-.62-.66c-1.29-.88-1.81-.42-3.08-1.21.5,0,0-.42.93-.06-.44-.25-.81-.5-.88-.39-.2-.25-1.34-.45-1.65-.85a1.16,1.16,0,0,1-.86-.17c0-.06,0-.08,0-.08s-.84-.32-.51.11c-1.06-1.28-3.78-2.05-4.73-3.12-1-.45-2.18-1-3.08-1.45.09,0,.05-.09.21,0-1.14-.78-1,.12-2.3-.76-.57-.64.81.22.42-.11.1-.68-1.71-.77-2.5-1.55l.25.07c-.63-.54-1.87-.62-3-1.21,0,0,.08,0,0-.09a17.82,17.82,0,0,1-3.74-1.07c.46-.08.58.1.46-.23-.53-.19,0,.44-1.07.07-.29-.27-1-.69-1-1l1,.39c-.37-.54-1.28-.51-1.78-.78l.13-.12c-1.53-.58-1.7-.22-3.33-.86l.13.17c-1,0-.67-.5-1.67-.55l-.13-.47c-.63-.11-2.21-.39-3.31-.67a14.8,14.8,0,0,1,2.83.34,8.1,8.1,0,0,0-2.39-.6,2.13,2.13,0,0,1,.8.19,8.3,8.3,0,0,1-3-.52c.44-.66-3-1.16-3.75-2-2.2-.34-4.19-1.3-6.71-1.87.75.8-.73-.16-.72.47-.59-.11-.81-.16-.85-.22l-1.69-.76c-.38-.27.58,0,.56-.15-1.27-.34-.48-.38-1.29-.73.12.25-.52.21-1.23,0l1,.49c-1.86-.06-1.45-.84-3.33-.89l.62-.07c-1-.08-3.45-.69-4.45-.36-.15-.09-.34-.3.08-.27-2.23-.48-5.06-.32-6.76-.88l.19-.13c-.42,0-.76.17-1.27-.05,0-.06.19-.12,0-.16a5.57,5.57,0,0,1-1.69-.06l.5-.1c-2.17-.5-3.42,0-5.27-.15.06-.44-1.65-.79-2.51-.95l0-.06a46.87,46.87,0,0,0-6.79-.07c-1.45-.58-5-.48-7.41-.72.36.08-.06.35-.49.39s-1.54.34-1.46-.07h.2c-.44-.39-1.6-.25-2.51-.2l-.11.54c-2.44-.65-6.13.91-7.49.5-.54.23-1.24.35-1.76.61l0-.28c-.78.13-1.37.23-2,.36s-1.29.32-2.23.6l.33-.3c-1.08.25-1.12,1.17-2.09,1.46l-.41-.32c-1.84.55-3.8.83-5.45,1.84,0-.07,0-.2.3-.32-.86.28-3.37,1-2.85,1.4-.16-.35-1.84.71-2.72,1.26l0-.32a4.84,4.84,0,0,1-1.72,1.36c-.28.08-.32-.11.06-.19-.94.25-.57.54-1.69.89l.32-.34a2.28,2.28,0,0,0-1.2.86c-.51.35-1.71.74-2,.57a1.72,1.72,0,0,1-1,.8c-.11-.05.06-.2.14-.27-1.56.57-2,1.37-3.18,1.65a.24.24,0,0,0-.24-.07c1.16-.59,2.12-1,2-1-.12-.23-1.09.2-.49-.5a11.79,11.79,0,0,1-2.75,1.95.44.44,0,0,1-.16,0l.08-.07a1.93,1.93,0,0,0-.56.33,8.14,8.14,0,0,0-.79.33c-.2-.13-1.13.46-1.59.69.16.23-.46.52.21.42-.08,0,.08-.08.38-.25A.7.7,0,0,0,534,212l0,0,1.15-.62a2.23,2.23,0,0,1-1.21.75c-.16.29-.33.59-.44.75-.82,0-2.15.45-2.43.33-1.32.92-3.24,1.94-3.87,2.89-.36.29-.53.13-.72.14a4,4,0,0,0,.57-.46c-.73.56-2.33,1.36-2.34,1.8-1.08.41.4-.62-1,.21l.13-.21c-3,1-3.95,3.29-7.31,4.31.23-.07.34-.11.42-.08-3.59,1.62-6.9,4.22-10.54,5.65a3.5,3.5,0,0,0-1.5,1.19l-.35-.14-.83.86c-1.3,1-2.83.73-4.39,2.16l.33.05c-.66.33-2,1.25-2,1a.53.53,0,0,1-.41.35l-.1-.12L495.79,234c-1.29.59-.12-.65-1.93.33-.64.42-1.67,1.46-1.37,1.41s.74-.3.84-.17l-.57.41c.12.47-.11,1.14,1.55.59l.9-.83h.44l-.87.5a1.77,1.77,0,0,0,1.12-.75.84.84,0,0,0,.56,0l.8-1c.22.09-.28.57.46.27.38-.45-.66-.1.06-.66.61-.09.55.14,1-.35.14.06.06.2-.15.37.45-.42,1.35-.82,1.5-1.19.65-.06,1.72-1,1.89-.63a5.08,5.08,0,0,1,1.22-1.1c-.62.95,1.8-1,1.85-.35.41-.78,2.23-1.5,3.25-2.37-.05.07-.13.21-.25.24a8.14,8.14,0,0,1,1.38-.46c-.11-.39.86-1,1.28-1.54,1-.12-.26.67.17.85-.2-.26,1.22-1.05.82-1.13.72-.14.58-.19,1.05-.08-.14-.49.52-.39.87-.94,1-.27.45.28,1.34-.39C515.57,224.92,514.8,225.55,514.8,225.55Zm22.53-13.41h0l-.47.26Zm1.95-1-.85.42c-.11-.05-.08-.18.11-.27C538.47,211.4,539,211.21,539.28,211.14Zm-5,.4c.29-.2.42-.2.49-.17l-.53.31,0,0A.3.3,0,0,1,534.25,211.54Z" transform="translate(-205.9 -150.5)"/>
        <path class="cls-6" d="M533.86,212.16l-.12.08.22,0,.06-.13Z" transform="translate(-205.9 -150.5)"/>
        <path class="cls-6" d="M719.56,252.74l0,0a.6.6,0,0,1,.08.08S719.58,252.75,719.56,252.74Z" transform="translate(-205.9 -150.5)"/><polygon class="cls-6" points="361.78 50.93 361.76 50.86 361.59 50.95 361.78 50.93"/>
        <path class="cls-6" d="M730.74,257.57s0,.07.13.12S730.81,257.62,730.74,257.57Z" transform="translate(-205.9 -150.5)"/>
        <path class="cls-6" d="M735.83,259l.7.27C736.23,259.09,736,259,735.83,259Z" transform="translate(-205.9 -150.5)"/>
        <path class="cls-6" d="M739.77,259.92a.32.32,0,0,0,.1-.11h0Z" transform="translate(-205.9 -150.5)"/>
        <path class="cls-6" d="M681.14,234.16a.61.61,0,0,0-.14-.07C680.66,234,680.89,234.06,681.14,234.16Z" transform="translate(-205.9 -150.5)"/>
        <path class="cls-6" d="M697.94,243.27q-.3-.08-.6-.18C697.63,243.27,697.85,243.41,697.94,243.27Z" transform="translate(-205.9 -150.5)"/><polygon class="cls-6" points="456.79 73.09 456.8 73.09 456.68 73.03 456.79 73.09"/>
        <path class="cls-6" d="M696.57,242.64a2.84,2.84,0,0,0,.77.45A4.56,4.56,0,0,0,696.57,242.64Z" transform="translate(-205.9 -150.5)"/>
        <path class="cls-6" d="M757.32,261.44h.2s0,0,0,0Z" transform="translate(-205.9 -150.5)"/>
        <path class="cls-6" d="M757.54,261.4l.22,0A.39.39,0,0,0,757.54,261.4Z" transform="translate(-205.9 -150.5)"/>
        <path class="cls-6" d="M758.21,261.28c-.15,0-.3.05-.45.08A.72.72,0,0,0,758.21,261.28Z" transform="translate(-205.9 -150.5)"/>
        <path class="cls-6" d="M751.93,261.29l-.07.1A.13.13,0,0,0,751.93,261.29Z" transform="translate(-205.9 -150.5)"/>
        <path class="cls-6" d="M750.29,261.25a7.68,7.68,0,0,0,1.52.22l.05-.08C751.6,261.53,750.67,261.1,750.29,261.25Z" transform="translate(-205.9 -150.5)"/>
        <path class="cls-6" d="M743.67,259.31l1.33.27c-.22-.14-.51-.33.1-.27C743.46,258.75,745.42,259.6,743.67,259.31Z" transform="translate(-205.9 -150.5)"/>
        <path class="cls-6" d="M739.57,258.46c.72.09,0-.15.07-.21C739.17,258.26,739.06,258.27,739.57,258.46Z" transform="translate(-205.9 -150.5)"/>
        <path class="cls-6" d="M711,248.77l.17-.2C710.61,248.37,711.09,248.65,711,248.77Z" transform="translate(-205.9 -150.5)"/><polygon class="cls-6" points="499.25 96.9 499.66 97.3 500 97.2 499.25 96.9"/><polygon class="cls-6" points="497.04 93.7 497.27 93.78 496.4 93.43 497.04 93.7"/>
        <path class="cls-6" d="M658.71,218.56v.36C659.07,219.05,659.31,218.78,658.71,218.56Z" transform="translate(-205.9 -150.5)"/>
        <path class="cls-6" d="M638.45,209.52a1.69,1.69,0,0,0-1.13-.54A11.41,11.41,0,0,0,638.45,209.52Z" transform="translate(-205.9 -150.5)"/><polygon class="cls-6" points="367.27 47.68 367.71 47.54 366.87 47.7 367.27 47.68"/>
        <path class="cls-6" d="M725.85,291.39c.12-.09,0-.28-.29-.25l-.24.32Z" transform="translate(-205.9 -150.5)"/>
        <path class="cls-6" d="M723.6,290.71c-.4.15-.87.42-.63.73.41-.31.5-.17.93-.54.34,0,.59.12.53.24.12-.08.52.09.7-.11a1.79,1.79,0,0,0-1.56-.1C723.45,290.85,723.57,290.77,723.6,290.71Z" transform="translate(-205.9 -150.5)"/>
        <path class="cls-6" d="M692.36,282.08l.17.12A.83.83,0,0,0,692.36,282.08Z" transform="translate(-205.9 -150.5)"/>
        <path class="cls-6" d="M674.25,273.12c.14.06.21.06.24,0C674.35,273.12,674.23,273.08,674.25,273.12Z" transform="translate(-205.9 -150.5)"/>
        <path class="cls-6" d="M671.34,271.22l.17.12C671.46,271.28,671.39,271.22,671.34,271.22Z" transform="translate(-205.9 -150.5)"/>
        <path class="cls-6" d="M692.36,282.08l-.45-.31C691.83,281.85,692.13,282,692.36,282.08Z" transform="translate(-205.9 -150.5)"/>
        <path class="cls-6" d="M719,291.18a.94.94,0,0,0,.3-.06H719Z" transform="translate(-205.9 -150.5)"/>
        <path class="cls-6" d="M700.71,285.11l.15.05a.38.38,0,0,0,.17-.08Z" transform="translate(-205.9 -150.5)"/>
        <path class="cls-6" d="M707.19,287.14c-.14-.05-.27.2-.36.31a.46.46,0,0,1,.37-.1A.31.31,0,0,0,707.19,287.14Z" transform="translate(-205.9 -150.5)"/>
        <path class="cls-6" d="M717.63,289.84h0Z" transform="translate(-205.9 -150.5)"/>
        <path class="cls-6" d="M696.18,283.33a.37.37,0,0,0,0-.12S696.15,283.28,696.18,283.33Z" transform="translate(-205.9 -150.5)"/>
        <path class="cls-6" d="M514.76,258.62s0,0,0-.05S514.71,258.64,514.76,258.62Z" transform="translate(-205.9 -150.5)"/>
        <path class="cls-6" d="M507.47,261.6l.08-.08a.6.6,0,0,0-.09-.13Z" transform="translate(-205.9 -150.5)"/>
        <path class="cls-6" d="M665.87,268l0,0C666.06,268.09,666,268.06,665.87,268Z" transform="translate(-205.9 -150.5)"/>
        <path class="cls-6" d="M612.49,244.9c.63.33-1.11.18-.15.58C612.26,245.36,613.3,245.16,612.49,244.9Z" transform="translate(-205.9 -150.5)"/>
        <path class="cls-6" d="M718.84,291.12l-.28,0Z" transform="translate(-205.9 -150.5)"/>
        <path class="cls-6" d="M612.34,245.48h0l.1,0Z" transform="translate(-205.9 -150.5)"/>
        <path class="cls-6" d="M652.82,261.55a.36.36,0,0,0,.08.18S652.89,261.66,652.82,261.55Z" transform="translate(-205.9 -150.5)"/>
        <path class="cls-6" d="M662.3,266.85l-.22-.16Z" transform="translate(-205.9 -150.5)"/>
        <path class="cls-6" d="M647.62,259.34a1,1,0,0,0-.34-.2.21.21,0,0,0,0,.06A.46.46,0,0,1,647.62,259.34Z" transform="translate(-205.9 -150.5)"/>
        <path class="cls-6" d="M642.4,256.68a.46.46,0,0,0,.07.1l.17.07Z" transform="translate(-205.9 -150.5)"/>
        <path class="cls-6" d="M531.53,253.62a1,1,0,0,1-.32-.19C531.34,253.61,530.52,253.86,531.53,253.62Z" transform="translate(-205.9 -150.5)"/>
        <path class="cls-6" d="M719,291a.2.2,0,0,1-.19.1h.2S719.07,291.05,719,291Z" transform="translate(-205.9 -150.5)"/>
        <path class="cls-6" d="M646.4,261.21l-.81-.46C645.81,260.89,646.1,261.06,646.4,261.21Z" transform="translate(-205.9 -150.5)"/>
        <path class="cls-6" d="M573,247.58l-.21,0A.43.43,0,0,0,573,247.58Z" transform="translate(-205.9 -150.5)"/>
        <path class="cls-6" d="M643.11,259.53a1.67,1.67,0,0,0-.38-.41.28.28,0,0,0-.13,0Z" transform="translate(-205.9 -150.5)"/>
        <path class="cls-6" d="M531.21,253.43Z" transform="translate(-205.9 -150.5)"/>
        <path class="cls-6" d="M525.4,255.41c.86-.19.32-.45.45-.7,1-.34.53.16.93.26.61-.24,1-.69,1.52-.77,0,.05.14.05.05.15.62-.44,2-.45,2.74-1a.31.31,0,0,1,.12.07A.64.64,0,0,1,531,253c.39-.09.67-.38.87-.18-.24.05-.24.15-.33.24l.38-.19c.44.26-.53.24-.48.49a9.58,9.58,0,0,1,2.27-.78c.2.31-1.4.4-.53.53l-1,.07c.83.37-.57.08.2.5,1.26-.15,1.35-.44,2.61-.6.24-.24-.15-.25.09-.49,1.7-.69,1.55.55,2.76-.13.29-.29.34-.74,1.31-.69l-.24.44c1.21-.19.58-.67,1.89-.65-.2.19-.92.3-.73.31.87.15.54-.32,1.16-.44l.2.31c1.27-.27,2.64-.76,4.06-1.06-.06.11-.29.26.06.3a26.8,26.8,0,0,1,5.61-.63l.62-.38c.16,0,.31.09.15.17.69,0,0-.19.32-.35s.53.09.3.21a12.29,12.29,0,0,1,4.64-.85l-.24.11c1,0,1-.74,2-.58l-.17.07c2.16-.12,4.49-.68,6.17-.39.27-.46,2.14,0,2.22-.63a12.81,12.81,0,0,0,2.65.35c.46,0,.65-.43,1.22-.54l0,.31.74-.39.44.33.53-.12c-.21,0-.46-.11-.44-.2a3.18,3.18,0,0,1,2.09.22l2-.41c0,.13-.36.2-.62.3,1-.4.22.31,1.16,0-.13-.06.06-.19.08-.25a7,7,0,0,0,2.4,0l-.15.22c1.47,0,3.08-.28,4.73-.34-.59-.08-.48-.45,0-.51l.2.32c.31-.22-.51-.1.12-.38.62,0,.43.35.08.48l.75-.15c.05.09-.13.15-.17.28.3-.22,1.3.27,1.73-.09l0,.09c1.64-.05,2.39-.19,3.73-.24,0-.29.54-.23.94-.47a28.74,28.74,0,0,0,3.27.23c.83-.15.24-.24.62-.41.06.25,1.25.22.63.41a33.43,33.43,0,0,0,3.63-.27c-.2-.11-.42-.15-.3-.24.32,0,.74.11.69.23l-.08,0c2-.38,4.64.8,6.25.35l-.09,0,1.67-.19c.76.09-.47.16.09.35,1.81-.31,2.8.28,4.28.17,1,.86,4,.52,5.37,1.34l-.05-.19c.43-.09.44.2.71.31,0-.14-.37-.26-.11-.29,3.29.55,6.5,2.23,9.55,3.77,1.13.55,1-.56,2.31.5l-.55.11c2.48.71,4.69,2.3,7.09,3.14-.17,0-.22.09-.44,0,.37.45,1.75.9,1.85.73.34.2,0,.2.17.4.41.37,1.34.34,1.48.68,0,.06-.17,0-.26,0,.36.06,1.43.77,1.26.37.78.55,1.67.72,2.27,1.21.58-.06,1.37.87,1.71.55-.26.37,1.32,1.08,1.95,1.16-.24,0,.4.37.1.43.61.3,1.21.51,1.21.25.88,1.06,2.45.77,2.77,1.71,1.92.7,3.67,1.41,5.34,2.15-.26.37-1.81-.88-2-.42a22.61,22.61,0,0,1,4.18,1.61c.37.26-.32.06-.49.06,1.63.62,3,1.56,4.45,2,0,0-.19,0-.35,0,.28.13.6.38.67.18l-.29-.08c-.3-.49,1.35,0,1.47-.12-.72.29,1.29.82.23,1.11.19.06.46.08.48-.06.25.17.29.29,0,.29,1,.39.77,0,1.65.48,0,.08-.25,0-.39.08a3.52,3.52,0,0,1,1.77.57c-.07,0,0,.14-.24,0,1.29.62,2.4.65,3.72,1.53-.61.17.41.37.31.74l.8.28-.21-.31a12.52,12.52,0,0,1,1.87.79l-.56-.11,1.26.56-.63-.48c.75.17.14-.46,1,.08-.19-.05.66.34.9.72h0a2.39,2.39,0,0,1,1.22.45c.07.17-.29.31-.24.42.46-.11,1.58.71,2.14.62-.17,0-.27.17-.24.23l.38-.09c.27.23.3.28.18.4.9.5-.08-.57.92.16-.09,0-.07,0-.27,0,1,.66,2.2.92,3.16,1.53.13.48-.93-.35-.72.1,1.49.67,3.23,1.07,4.61,1.83l-.24-.16c.42-.39,1,.73,1.78.84-.19-.05-.35.16-.28.13a20.29,20.29,0,0,0,3.63,1.31l-.24,0a23.27,23.27,0,0,0,2.12,1.06c.24,0,.6.13.45-.15,1.67,1.55,3.91,1.13,5.43,2.41-.21-.08-.54-.08-.37,0,.51.16,1,.29,1.55.43,0-.26-.15-.2-.4-.48a2.24,2.24,0,0,1,1.07.12c-.73-.1-.12.35.13.57,0-.08.11-.12.1-.19.66.66.29-.4,1.27.24l-.09.1a5.7,5.7,0,0,1,1.28.21c.1.31-.47,0-.57.18.63.18,1.37-.1,1.85.34-.28,0-.66-.13-.94-.15a2.18,2.18,0,0,0,1.05.63l-.05,0c.34.16.68.32,1,.45l-.25-.15c1-.45,1.64.32,2.81.17-1.13.13-.23.19-.39.46.25.16.64.36.5.41.56-.1.8.39,1.6.22,0,.1.54.13.37.34.68.08-.12-.2,0-.3a4.54,4.54,0,0,1,1.76.42,5,5,0,0,0,2.12.32c1.3.06,1.59-.25,2.79-.25.38.21-.38.31-.38.31a4.06,4.06,0,0,0,1.74.24c-.14.07,0,.16.16.29.49,0,.36-.32,1-.12a1.67,1.67,0,0,1-.53.35c.59,0,1.18-.17,1.79-.21.14.19-.38.23-.61.32.69,0,1.77,0,2-.26l-.43-.13c.25,0,.12.25-.07.28-.59.16-.82-.17-.85-.27l.43,0c-.39-.61-1.71-.05-2.57-.16l.4-.39c-.3.1-.61.17-.91.24-.17-.13-.27-.38.15-.38-.58-.29-.55.07-1-.23-.06,0,0-.06,0-.07l-.61,0c.13-.07-.06-.3.3-.19-1-.38-1.76.08-2.11-.32h.1c-1.49-.14-.19.27-1.36.42l-.6-.88-.2.28c-.15,0-.44-.12-.36-.23-.61.1.07.15-.3.28-.66-.43-2-.34-2.07-.85-.31.17.65.34-.16.32-.09-.57-.92-.11-1.51-.53.27-.2.85.1.26-.31-.51.33-1.24-.44-1.81-.51-.12.34-1.23-.17-2.17-.36a25.38,25.38,0,0,0-2.46-1.13l0-.05c-.28.3-1.13-.08-1.78-.23.1-.19.24-.24.61-.21l-.59-.21a1.25,1.25,0,0,1-.78,0l.24-.2a10.52,10.52,0,0,1-2.62-.84c-.15.22.54,1-.58.72,0-.14,0-.38.35-.32a1.19,1.19,0,0,1-.53-.15l.51-.05c-.42-.27-.31.09-.66-.07.08-.18-.22-.24-.11-.36s.29.2.45.18a2.38,2.38,0,0,1-1-.7c0,.12-.1.24-.41.14-.78-.3-.18-.33-.59-.61-.23.05-.67-.28-.8,0-.22-.1-.21-.24-.27-.35-.45,0-1.87-.76-1.54-.28l.09.06h-.07c-1.42-.31-2.63-1.33-4-1.82l0-.09a19.77,19.77,0,0,0-2.36-.79c-.23-.11-.45-.41-.31-.47a4,4,0,0,1-1.49-.69c.66.12-.13-.24.65.17a3.52,3.52,0,0,0-1.74-.81c.39-.1-.42-.57-.81-.67l.45.42A8.84,8.84,0,0,1,682,277l.34-.2c-1.35-1.11-3.06-.76-3.92-1.95-.51,0,.76.57.27.63a11,11,0,0,1-1.41-1.31c-.88-.65-1.12,0-2.07-.64.08.17.06.51-.75.23s-.63-.88-.15-.74c.18.07.24.15.22.18.24.08.56.18.34-.07l-.14.06c-.3-.29-1.27-.77-1-.83-.58-.17-.32.06,0,.32-.82-.62-1.41-.73-2.28-1.3.12.13.19.32,0,.25-1.3-.83-.71-.11-1.65-.53-.44-.43.38-.29-.61-.63-.51-.4,0-.34.29-.31a5.92,5.92,0,0,1-2-1.22l.49.14a4.58,4.58,0,0,1-.73-.31l.14.34c-.24-.17-.46-.29-.41-.37-.34,0,0,.46-.6.37-.3-.28-1.12-.42-1.1-.77,1.05.66,0-.34,1,.09a2.41,2.41,0,0,1-.65-.34c0-.05.06,0,.14,0-.92-.79-.64.07-1.72-.49.22-.09-.1-.43-.3-.49.44.23.08.37-.38.29-.64-.48-.81-.29-1.17-.49l.39.27c-.22.08-.56-.12-1.07-.31,0-.15.49.14.34,0-.68,0-1.07-.91-1.92-1.1-.29-.29.12-.32-.15-.55-.95-.22-.8-.68-1.77-1,.15.34.22.31-.51.2l1.53.6-1.09-.17c.43.22,1,.34,1.24.51-.54-.06-.46-.09-.34.2-.44-.63-1.29-.42-1.87-1l.29-.52c-.93-.77-2-.68-3.29-1.5l.39.31c-.29.12-.85-.4-1.33-.54.13-.15-.11-.35-.24-.56,0,.14-1-.52-1.29-.23l-.49-.54c-1-.66-1.51-.14-2.53-.74.42,0,0-.39.78-.17-.35-.18-.65-.37-.72-.26-.15-.21-1.1-.26-1.33-.59-.19,0-.33.16-.72-.05,0-.06,0-.09,0-.09s-.68-.2-.44.17c-.8-1.1-3-1.5-3.74-2.45-.8-.34-1.75-.75-2.46-1.09.08,0,0-.09.17,0-.87-.66-.85.2-1.84-.54-.42-.57.65.14.36-.14.14-.66-1.36-.6-1.92-1.31l.19.05c-.46-.48-1.48-.48-2.38-1,0,0,.07,0,0-.09a11.76,11.76,0,0,1-3-.87c.39-.09.47.08.41-.24-.42-.16-.06.43-.9.11-.19-.25-.72-.63-.69-.92l.77.35c-.23-.51-1-.45-1.37-.7l.12-.11c-1.2-.5-1.38-.15-2.64-.72l.09.16c-.85.07-.5-.45-1.31-.47l-.07-.45c-.5-.1-1.77-.29-2.64-.51a9.82,9.82,0,0,1,2.29.2,5.34,5.34,0,0,0-1.91-.48,1.54,1.54,0,0,1,.64.15,5.75,5.75,0,0,1-2.43-.35c.41-.7-2.41-1-3-1.68-1.79-.15-3.42-.88-5.48-1.12.64.69-.59-.07-.55.55-.48,0-.65-.05-.69-.09l-1.4-.53c-.32-.21.47-.08.44-.22-1-.16-.41-.31-1.09-.53.12.23-.39.27-1,.14l.81.35c-1.48.21-1.22-.62-2.72-.38l.48-.17c-.76.06-2.79-.14-3.54.33-.13-.07-.3-.24,0-.28-1.8-.13-4,.45-5.39.15l.13-.15c-.33.05-.58.29-1,.14,0-.06.14-.15,0-.16a3.37,3.37,0,0,1-1.33.18l.38-.17c-1.75-.19-2.67.42-4.13.56,0-.44-1.38-.56-2.07-.62l0-.06a38.59,38.59,0,0,0-5.32.7c-1.18-.41-4,0-5.85-.17.29.06,0,.34-.35.4s-1.2.38-1.16,0h.16c-.35-.37-1.25-.22-2-.18l-.08.54c-1.9-.63-4.81.63-5.87,0-.43.17-1,.22-1.41.39v-.29a23.13,23.13,0,0,0-3.38.29l.29-.23c-.86.07-1,.92-1.78,1l-.29-.4c-1.49.16-3.05,0-4.48.53,0-.07,0-.19.29-.24-.71.06-2.76.06-2.43.6-.07-.37-1.54.16-2.33.43l.09-.29a3.22,3.22,0,0,1-1.57.77c-.23,0-.23-.19.08-.16-.77,0-.55.34-1.47.33l.31-.23a1.54,1.54,0,0,0-1.09.44c-.47.19-1.47.14-1.62-.09a1.14,1.14,0,0,1-.93.44c-.08-.08.08-.17.15-.21-1.31,0-1.85.62-2.78.49a.22.22,0,0,0-.17-.14c1-.15,1.84-.27,1.77-.24,0-.25-.88-.16-.27-.62a7.43,7.43,0,0,1-2.52.91.35.35,0,0,1-.12-.07l.07-.05a1.37,1.37,0,0,0-.5.13,3.66,3.66,0,0,0-.67,0c-.13-.19-1,0-1.38.11.08.27-.46.32.08.46-.07,0,.07,0,.35-.1l.16-.06,0,0,1-.2a1.42,1.42,0,0,1-1.1.3c-.18.22-.38.44-.49.55-.63-.29-1.75-.32-1.94-.52-1.22.39-2.93.65-3.61,1.32-.34.13-.44-.08-.59-.13a2.35,2.35,0,0,0,.54-.23c-.68.27-2.09.48-2.18.87-.93,0,.43-.44-.78-.13l.14-.14c-2.54-.1-3.72,1.74-6.54,1.57.19,0,.29,0,.34.06-3.11.35-6.16,1.75-9.25,2.23-.87.18-.88.45-1.32.79l-.29-.21c-.25.21-.49.44-.73.65-1.09.71-2.39.19-3.66,1.39l.28.08c-.55.23-1.59,1-1.62.76,0,.06-.06.28-.31.31l-.1-.13c-.38.32-.72.68-1.08,1-1,.56-.21-.63-1.6.34-.46.43-1.08,1.47-.83,1.4s.55-.33.66-.21l-.37.41c.22.42.23,1,1.44.46.16-.27.35-.52.54-.78h.37l-.61.46c.48-.08.59-.39.76-.68a.59.59,0,0,0,.45,0l.5-.87c.19.1-.13.53.42.29.24-.41-.56-.14,0-.62.49,0,.46.17.81-.24.13.06.07.18-.08.33.32-.36,1-.64,1.12-1,.51,0,1.36-.74,1.51-.33a3.12,3.12,0,0,1,1-.83c-.51.78,1.48-.58,1.5,0,.36-.66,1.86-.91,2.75-1.47,0,.05-.13.16-.22.17a4,4,0,0,1,1.14-.07c0-.4.79-.74,1.2-1.1.78.17-.29.56,0,.85-.12-.3,1.1-.64.8-.83.58.09.48,0,.83.24,0-.5.47-.21.83-.61.82,0,.3.4,1.11,0C526.11,255.06,525.4,255.41,525.4,255.41Zm20.08-4.87h0l-.42.09Zm1.72-.27-.75.1c-.07-.08,0-.19.15-.22C546.52,250.23,546.93,250.22,547.2,250.27Zm-4-1.32c.27-.09.37,0,.42,0-.13,0-.28.06-.47.12l0,0A.4.4,0,0,1,543.24,249Z" transform="translate(-205.9 -150.5)"/>
        <path class="cls-6" d="M542.82,249.4l-.11,0,.17,0,.08-.1Z" transform="translate(-205.9 -150.5)"/>
        <path class="cls-6" d="M692.57,282.22l0,0a.13.13,0,0,1,.06.07S692.58,282.24,692.57,282.22Z" transform="translate(-205.9 -150.5)"/><polygon class="cls-6" points="365.18 97.38 365.17 97.31 365.02 97.38 365.18 97.38"/>
        <path class="cls-6" d="M701.15,286.62a.24.24,0,0,0,.1.11A.37.37,0,0,0,701.15,286.62Z" transform="translate(-205.9 -150.5)"/>
        <path class="cls-6" d="M705.1,288l.53.28A4.87,4.87,0,0,0,705.1,288Z" transform="translate(-205.9 -150.5)"/>
        <path class="cls-6" d="M708.15,289a.27.27,0,0,0,.09-.1h0Z" transform="translate(-205.9 -150.5)"/>
        <path class="cls-6" d="M661.64,268.62l-.11,0C661.25,268.49,661.43,268.56,661.64,268.62Z" transform="translate(-205.9 -150.5)"/>
        <path class="cls-6" d="M675.38,274.9a3.88,3.88,0,0,1-.49-.11C675.12,274.93,675.3,275,675.38,274.9Z" transform="translate(-205.9 -150.5)"/><polygon class="cls-6" points="440.59 110.76 440.59 110.76 440.5 110.71 440.59 110.76"/>
        <path class="cls-6" d="M674.26,274.47a1.79,1.79,0,0,0,.63.32A2.87,2.87,0,0,0,674.26,274.47Z" transform="translate(-205.9 -150.5)"/>
        <path class="cls-6" d="M721.89,291.45l.15,0s0,0,0-.05Z" transform="translate(-205.9 -150.5)"/>
        <path class="cls-6" d="M722.06,291.43h.18A.32.32,0,0,0,722.06,291.43Z" transform="translate(-205.9 -150.5)"/>
        <path class="cls-6" d="M722.6,291.37l-.36.05A.53.53,0,0,0,722.6,291.37Z" transform="translate(-205.9 -150.5)"/>
        <path class="cls-6" d="M717.65,290.89l-.06.1A.19.19,0,0,0,717.65,290.89Z" transform="translate(-205.9 -150.5)"/>
        <path class="cls-6" d="M716.36,290.74a4.78,4.78,0,0,0,1.18.32l.05-.07C717.36,291.11,716.67,290.61,716.36,290.74Z" transform="translate(-205.9 -150.5)"/>
        <path class="cls-6" d="M711.32,288.5l1,.32c-.16-.14-.37-.34.11-.26C711.22,287.94,712.68,288.86,711.32,288.5Z" transform="translate(-205.9 -150.5)"/>
        <path class="cls-6" d="M708.15,287.55c.57.11,0-.15.08-.2C707.86,287.35,707.76,287.35,708.15,287.55Z" transform="translate(-205.9 -150.5)"/>
        <path class="cls-6" d="M685.84,278.9l.16-.2C685.58,278.54,686,278.78,685.84,278.9Z" transform="translate(-205.9 -150.5)"/><polygon class="cls-6" points="475.22 127.57 475.54 127.91 475.83 127.79 475.22 127.57"/><polygon class="cls-6" points="473.6 124.73 473.79 124.78 473.09 124.53 473.6 124.73"/>
        <path class="cls-6" d="M643.44,256.93l0,.34C643.71,257.36,643.92,257.07,643.44,256.93Z" transform="translate(-205.9 -150.5)"/>
        <path class="cls-6" d="M627.59,249.48a1.09,1.09,0,0,0-.88-.48A7.76,7.76,0,0,0,627.59,249.48Z" transform="translate(-205.9 -150.5)"/><polygon class="cls-6" points="369.6 94.5 369.94 94.37 369.28 94.5 369.6 94.5"/>
        <path class="cls-6" d="M697.76,308.2c.08-.09,0-.28-.24-.23l-.16.34Z" transform="translate(-205.9 -150.5)"/>
        <path class="cls-6" d="M696,307.68c-.3.18-.64.48-.43.78.29-.34.37-.21.67-.61.26-.05.46.08.42.21.09-.09.41.05.53-.17a1.11,1.11,0,0,0-1.2,0C695.88,307.84,696,307.75,696,307.68Z" transform="translate(-205.9 -150.5)"/>
        <path class="cls-6" d="M671.29,304.16l.15.08A.36.36,0,0,0,671.29,304.16Z" transform="translate(-205.9 -150.5)"/>
        <path class="cls-6" d="M656.32,300.06c.12,0,.18,0,.19,0S656.31,300,656.32,300.06Z" transform="translate(-205.9 -150.5)"/>
        <path class="cls-6" d="M653.86,299l.15.06S653.9,299,653.86,299Z" transform="translate(-205.9 -150.5)"/>
        <path class="cls-6" d="M671.29,304.16l-.38-.2C670.86,304.06,671.1,304.09,671.29,304.16Z" transform="translate(-205.9 -150.5)"/>
        <path class="cls-6" d="M692.52,308.54a.57.57,0,0,0,.23-.08l-.22,0Z" transform="translate(-205.9 -150.5)"/>
        <path class="cls-6" d="M678,305.35l.12,0a.69.69,0,0,0,.13-.11Z" transform="translate(-205.9 -150.5)"/>
        <path class="cls-6" d="M683.16,306.16c-.11,0-.19.24-.25.36a.36.36,0,0,1,.28-.16A.39.39,0,0,0,683.16,306.16Z" transform="translate(-205.9 -150.5)"/>
        <path class="cls-6" d="M691.36,307.38l.15,0Z" transform="translate(-205.9 -150.5)"/>
        <path class="cls-6" d="M674.36,304.53a.36.36,0,0,0,0-.11A.15.15,0,0,0,674.36,304.53Z" transform="translate(-205.9 -150.5)"/>
        <path class="cls-6" d="M531.29,289s0,0,0-.05S531.25,289,531.29,289Z" transform="translate(-205.9 -150.5)"/>
        <path class="cls-6" d="M525.08,289.4l.07,0a.9.9,0,0,0,0-.16Z" transform="translate(-205.9 -150.5)"/>
        <path class="cls-6" d="M649.29,297.38h0C649.44,297.39,649.37,297.38,649.29,297.38Z" transform="translate(-205.9 -150.5)"/>
        <path class="cls-6" d="M606.68,284.26c.44.36-.88.12-.19.57C606.44,284.71,607.26,284.57,606.68,284.26Z" transform="translate(-205.9 -150.5)"/>
        <path class="cls-6" d="M692.38,308.5h0Z" transform="translate(-205.9 -150.5)"/>
        <path class="cls-6" d="M606.49,284.83h0l.07,0Z" transform="translate(-205.9 -150.5)"/>
        <path class="cls-6" d="M638.57,294.35a.51.51,0,0,0,.07.15S638.63,294.43,638.57,294.35Z" transform="translate(-205.9 -150.5)"/>
        <path class="cls-6" d="M646.4,297.14l-.19-.09A.79.79,0,0,0,646.4,297.14Z" transform="translate(-205.9 -150.5)"/>
        <path class="cls-6" d="M634.36,293.37a.61.61,0,0,0-.28-.12l0,.05A.27.27,0,0,1,634.36,293.37Z" transform="translate(-205.9 -150.5)"/>
        <path class="cls-6" d="M630.12,291.89a.24.24,0,0,0,.06.08l.14,0Z" transform="translate(-205.9 -150.5)"/>
        <path class="cls-6" d="M544.48,285.8a.9.9,0,0,1-.25-.21C544.33,285.77,543.7,286,544.48,285.8Z" transform="translate(-205.9 -150.5)"/>
        <path class="cls-6" d="M692.52,308.38a.17.17,0,0,1-.14.12h.15A.09.09,0,0,0,692.52,308.38Z" transform="translate(-205.9 -150.5)"/>
        <path class="cls-6" d="M633.47,295.41l-.67-.27A5.48,5.48,0,0,0,633.47,295.41Z" transform="translate(-205.9 -150.5)"/>
        <path class="cls-6" d="M576.36,283l-.17,0A.24.24,0,0,0,576.36,283Z" transform="translate(-205.9 -150.5)"/>
        <path class="cls-6" d="M630.78,294.48a1.08,1.08,0,0,0-.32-.32l-.1,0Z" transform="translate(-205.9 -150.5)"/>
        <path class="cls-6" d="M544.23,285.58h0Z" transform="translate(-205.9 -150.5)"/>
        <path class="cls-6" d="M539.78,287.18c.66-.13.24-.42.33-.66.77-.28.42.19.73.31.47-.2.78-.62,1.15-.69,0,.06.12.06,0,.15.46-.39,1.55-.3,2.09-.78a.29.29,0,0,1,.1.07.74.74,0,0,1-.19-.48c.3-.06.51-.33.67-.11-.19,0-.18.12-.26.21l.3-.16c.34.29-.41.2-.36.45a6.27,6.27,0,0,1,1.74-.63c.15.32-1.08.32-.4.5H545c.65.42-.44,0,.17.51,1-.08,1-.37,2-.45.18-.23-.12-.26.06-.49,1.3-.57,1.21.67,2.13.07.22-.26.25-.7,1-.59l-.18.42c.93-.1.44-.62,1.45-.52-.15.18-.71.24-.56.26.67.21.41-.28.9-.35l.14.32c1-.21,2-.59,3.13-.77-.05.11-.22.24,0,.31a15.64,15.64,0,0,1,4.31-.23l.48-.33c.12,0,.24.11.11.18.53.07,0-.19.25-.32s.41.13.23.24a7.77,7.77,0,0,1,3.58-.5l-.19.1c.76.06.82-.67,1.54-.42l-.13.05c1.65.07,3.46-.28,4.73.12.23-.45,1.63.17,1.73-.43a7,7,0,0,0,2,.59c.36,0,.53-.37,1-.43V283l.59-.33.31.37.41-.08c-.16,0-.34-.14-.32-.23a1.91,1.91,0,0,1,1.57.41L579,283c0,.12-.29.15-.49.22.81-.28.13.33.88.07-.1-.07.06-.18.08-.24a4,4,0,0,0,1.82.17l-.12.21c1.11.07,2.36.05,3.61.13-.44-.13-.31-.49.06-.5l.12.34c.26-.19-.37-.15.14-.36.46.07.28.39,0,.47l.58-.07c0,.1-.12.14-.16.27.25-.19,1,.39,1.32.07l0,.1c1.25.08,1.82.07,2.84.16.05-.28.44-.17.77-.37a15.78,15.78,0,0,0,2.45.57c.65-.07.22-.22.53-.35,0,.25.91.37.42.48a18.46,18.46,0,0,0,2.78.17c-.14-.13-.3-.2-.2-.27.26,0,.55.19.5.31h-.07a5.84,5.84,0,0,1,2.46.55,4.14,4.14,0,0,0,2.23.49h-.07l1.31,0c.57.16-.39.12,0,.36,1.44-.15,2.12.47,3.28.47.68.94,3,.68,4.08,1.42l0-.19c.34-.1.33.2.54.29,0-.14-.28-.24-.07-.28a45.22,45.22,0,0,1,7.55,2.66c.91.35.82-.71,1.85.09l-.44.2c2,.25,3.81,1.32,5.74,1.65-.13,0-.17.12-.34.06.3.36,1.42.52,1.49.33.28.13,0,.19.15.35.34.27,1.07.06,1.2.36,0,0-.14,0-.21,0,.29,0,1.16.45,1,.1.64.37,1.36.35,1.85.7.46-.17,1.13.55,1.39.18-.2.41,1.09.76,1.59.71-.19.08.34.27.11.39.5.16,1,.24,1,0,.75.82,2,.2,2.29,1,1.57.25,3,.52,4.38.84-.18.41-1.5-.42-1.59.05a14.14,14.14,0,0,1,3.42.56c.31.16-.24.13-.37.17,1.33.21,2.46.77,3.67.87,0,0-.16.05-.28.05.23.05.5.21.53,0h-.23c-.28-.39,1.06-.35,1.15-.49-.55.46,1.08.47.27,1,.16,0,.37,0,.38-.18.21.1.25.2,0,.29.83.12.61-.17,1.34,0,0,.09-.19.09-.3.18a2.21,2.21,0,0,1,1.44.08c-.05.05,0,.15-.19.09,1.07.27,2,0,3.06.51-.46.32.36.24.32.62l.66.06-.21-.24c.55.15,1.11,0,1.54.27l-.44,0,1,.21-.54-.29c.6,0,.06-.47.76-.17-.15,0,.55.15.78.44h0a1.47,1.47,0,0,1,1,.11c.08.14-.19.37-.14.47.35-.23,1.31.26,1.73,0a.26.26,0,0,0-.16.28l.29-.18c.23.14.26.19.18.33.75.25-.12-.52.73-.08-.08,0,0,0-.21,0,.88.35,1.8.31,2.6.66.16.43-.75-.11-.55.27a34.47,34.47,0,0,1,3.77.62l-.21-.1c.29-.47.81.48,1.46.39-.15,0-.26.24-.21.19a13,13,0,0,0,2.94.42l-.18.1a16.69,16.69,0,0,0,1.73.55c.19-.1.48,0,.34-.24,1.42,1.12,3.12.27,4.4,1.19-.17,0-.42,0-.29.06l1.24.11c-.06-.24-.14-.17-.36-.39a1.33,1.33,0,0,1,.84-.09c-.57.05-.06.37.15.54,0-.08.07-.14.06-.22.56.53.19-.43,1,0l-.06.11a3,3,0,0,1,1,0c.1.28-.36.06-.42.28.49.06,1.05-.34,1.45,0-.22,0-.52,0-.74,0a1.37,1.37,0,0,0,.85.43h0l.82.26-.21-.11c.72-.61,1.28.06,2.17-.29-.86.33-.16.23-.26.52.2.11.52.24.41.32.43-.2.64.26,1.24,0,0,.1.43.06.31.3.53,0-.1-.18,0-.3.83-.27,1.84.58,3,.19,1-.14,1.19-.44,2.11-.57.3.16-.26.35-.26.35a2.45,2.45,0,0,0,1.34,0c-.1.08,0,.16.14.27.38,0,.26-.35.76-.2a1.53,1.53,0,0,1-.38.39c.45-.07.89-.28,1.35-.37.12.17-.28.26-.44.38.52-.09,1.35-.18,1.5-.45l-.34-.09c.19,0,.11.23,0,.28-.44.22-.65-.08-.67-.18l.32-.07c-.34-.57-1.31.13-2,.07l.28-.41-.68.33c-.15-.11-.24-.35.09-.4-.47-.22-.42.14-.82-.1,0,0,0-.06,0-.07l-.46.11c.09-.08-.07-.29.21-.23-.81-.26-1.34.25-1.63-.08l.07,0c-1.15.07-.13.29-1,.6L688,307l-.14.3c-.11,0-.34-.06-.29-.18-.45.17.06.14-.21.31-.54-.32-1.57,0-1.65-.52-.22.21.52.24-.1.33-.11-.54-.7,0-1.19-.29.19-.25.66-.05.18-.35-.37.43-1-.22-1.43-.2-.07.36-1,0-1.7,0a13.05,13.05,0,0,0-2-.67l0-.05c-.19.33-.87.13-1.39.11.06-.21.17-.28.46-.32l-.48-.09a.82.82,0,0,1-.6.11l.17-.25a6.54,6.54,0,0,1-2.1-.28c-.1.24.5.83-.39.82,0-.14,0-.38.25-.39-.08,0-.29.06-.42,0l.39-.16c-.35-.17-.24.15-.53.07.05-.19-.18-.18-.11-.33s.24.14.37.09a1.64,1.64,0,0,1-.8-.49c0,.12-.06.26-.3.23-.63-.13-.17-.28-.51-.46-.18.1-.55-.13-.62.16-.19,0-.19-.19-.24-.28-.35.05-1.52-.32-1.23.07l.08,0h0c-1.13,0-2.16-.7-3.24-.84l0-.09a10.09,10.09,0,0,0-1.91-.21c-.19,0-.39-.28-.28-.38a2.18,2.18,0,0,1-1.23-.3c.52,0-.13-.19.52,0-.59-.24-.69-.43-1.43-.35.29-.18-.38-.43-.7-.44l.39.3a5.72,5.72,0,0,1-.91-.26l.24-.27c-1.16-.73-2.46.05-3.25-.86-.4.13.64.34.27.52-.57-.2-1-.82-1.24-.87-.75-.39-.87.27-1.67-.08.08.15.09.48-.56.42s-.59-.68-.19-.67c.14,0,.2.08.18.12.2,0,.46,0,.26-.16l-.1.1c-.26-.2-1.07-.4-.83-.54-.47,0-.24.14.07.28-.7-.36-1.16-.32-1.9-.64.1.1.18.26.06.23-1.09-.45-.56.08-1.34-.08-.38-.29.27-.37-.54-.44-.43-.25,0-.33.2-.37-.76,0-1.27-.51-1.66-.66h.4a2.47,2.47,0,0,1-.6-.11l.15.29c-.21-.1-.39-.15-.36-.25-.27.09.06.43-.44.51-.25-.2-.91-.12-.92-.45.87.35,0-.34.76-.17a1.42,1.42,0,0,1-.54-.16s.05-.05.11-.05c-.79-.52-.49.23-1.39,0,.16-.13-.11-.38-.27-.38.36.1.09.33-.28.37-.54-.3-.65-.08-1-.19l.33.16c-.17.14-.45,0-.87,0,0-.14.39,0,.27-.08-.54.17-.92-.61-1.6-.59-.25-.2.07-.33-.16-.48-.76,0-.68-.45-1.46-.49.14.29.19.24-.39.31l1.25.2-.87.1c.36.12.81.09,1,.19-.42.08-.37,0-.25.28-.39-.49-1-.1-1.54-.5l.19-.56c-.78-.52-1.62-.18-2.68-.67l.32.21c-.22.18-.69-.19-1.08-.21.09-.18-.11-.32-.23-.48,0,.14-.8-.28-1,.07l-.42-.41c-.86-.39-1.19.2-2-.15.32-.12,0-.38.6-.34-.28-.09-.53-.21-.58-.09-.12-.17-.87,0-1.08-.28-.15,0-.25.22-.57.1,0,0,0-.09,0-.09s-.55-.05-.34.25c-.68-.88-2.47-.81-3.06-1.59-.65-.15-1.42-.36-2-.55.06,0,0-.09.14,0-.72-.45-.67.36-1.49-.15-.35-.46.53,0,.28-.21.1-.65-1.1-.3-1.57-.86h.16c-.38-.37-1.2-.16-1.93-.47a.11.11,0,0,0,0-.09,6.74,6.74,0,0,1-2.38-.26c.3-.16.37,0,.32-.3-.34-.08,0,.42-.71.27-.17-.2-.6-.47-.57-.76l.62.2c-.2-.45-.8-.26-1.1-.43l.09-.13c-1-.26-1.09.11-2.09-.24l.06.14c-.67.19-.39-.36-1-.25l0-.43c-.39,0-1.4,0-2.08-.13a6.59,6.59,0,0,1,1.8-.13,3.28,3.28,0,0,0-1.5-.19c.16,0,.38,0,.5.06a3.24,3.24,0,0,1-1.89-.06c.34-.7-1.85-.73-2.22-1.45a31.73,31.73,0,0,1-4.09-1.09c.4.71-.45-.09-.5.53-.36-.05-.49-.09-.51-.13l-1-.62c-.21-.23.37-.05.37-.19-.77-.23-.27-.34-.76-.6.06.23-.34.25-.77.08l.58.4c-1.17.11-.85-.69-2-.59l.39-.12c-.59,0-2.1-.41-2.74,0-.09-.09-.19-.28.07-.27-1.34-.37-3.12,0-4.13-.45l.13-.14c-.26,0-.49.21-.78,0,0-.06.12-.14,0-.16a2.06,2.06,0,0,1-1,0l.31-.12c-1.31-.41-2.1.13-3.23.1,0-.44-1-.7-1.5-.83l0-.06a17.77,17.77,0,0,0-4.14.14c-.86-.53-3-.44-4.45-.78.21.09-.06.34-.32.38s-1,.27-.88-.13h.12c-.23-.4-.94-.32-1.48-.35l-.11.52a4.51,4.51,0,0,0-2.49-.32c-.85.07-1.62.17-2-.17-.35.13-.77.13-1.11.26l0-.28a15.83,15.83,0,0,0-2.61,0l.23-.2c-.66,0-.82.83-1.43.87l-.19-.41c-1.16.05-2.35-.28-3.48.15a.26.26,0,0,1,.23-.21c-.54,0-2.13-.19-1.89.39,0-.38-1.2.05-1.81.27l.08-.29a2.1,2.1,0,0,1-1.23.65c-.18,0-.17-.21.06-.16-.59-.1-.43.3-1.14.21l.24-.2c-.59,0-.54.11-.85.35s-1.13,0-1.24-.21a.78.78,0,0,1-.73.37c-.06-.09.06-.16.13-.2-1-.08-1.45.49-2.16.29a.19.19,0,0,0-.13-.15,11.69,11.69,0,0,1,1.37-.11c0-.26-.67-.23-.2-.64a4.51,4.51,0,0,1-2,.72.18.18,0,0,1-.09-.08l.06,0a.8.8,0,0,0-.39.08,3.21,3.21,0,0,0-.53,0c-.1-.19-.75,0-1.06,0,.06.28-.36.29.06.47,0,0,.05-.05.26-.09l.13-.05v0l.78-.11a.89.89,0,0,1-.85.21c-.14.2-.29.41-.38.51-.48-.32-1.35-.4-1.5-.63-.94.3-2.26.45-2.79,1.06-.26.11-.34-.1-.45-.17.15-.07.34-.09.41-.18-.53.21-1.62.31-1.68.7-.72,0,.33-.4-.61-.17l.11-.13c-2-.22-2.85,1.47-5,1.15.16,0,.23,0,.27.07a20.51,20.51,0,0,0-3.57.77,16.89,16.89,0,0,1-3.57.67c-.67.07-.68.32-1,.59l-.22-.25-.59.51c-.88.51-1.86-.31-2.93.53l.21.15c-.44.09-1.33.53-1.33.28,0,.05-.08.25-.28.19l-.06-.14-1,.57c-.85.14,0-.64-1.26-.3-.43.19-1.14.82-.94.87s.49-.05.55.1l-.38.2c.07.47-.1,1,1,1l.61-.48.29.15-.58.18c.39.11.55-.13.74-.33a.48.48,0,0,0,.37.15l.55-.63c.13.15-.2.44.28.4.26-.29-.42-.3.06-.59.4.11.35.3.68,0,.09.1,0,.2-.11.3.31-.25.9-.34,1-.63.41.15,1.15-.41,1.24,0a2.19,2.19,0,0,1,.83-.59c-.44.66,1.21-.29,1.2.3.31-.57,1.51-.61,2.21-1.07,0,.05-.1.15-.17.14a2.76,2.76,0,0,1,.9,0c0-.4.61-.65.93-1,.62.24-.22.52,0,.83-.1-.3.85-.51.61-.73.46.14.38,0,.66.3,0-.49.36-.17.63-.53.65.1.26.41.87.12C540.32,286.89,539.78,287.18,539.78,287.18Zm15.43-3.49h0l-.32.06Zm1.32-.16-.57.06a.13.13,0,0,1,.11-.21C556,283.45,556.33,283.47,556.53,283.53Zm-3-1.61c.21-.06.29,0,.33,0a2.32,2.32,0,0,0-.37.07l0,0A.34.34,0,0,1,553.48,281.92Z" transform="translate(-205.9 -150.5)"/>
        <path class="cls-6" d="M553.15,282.33l-.08,0,.13.05.07-.1Z" transform="translate(-205.9 -150.5)"/>
        <path class="cls-6" d="M671.46,304.25h0a.12.12,0,0,1,0,.05Z" transform="translate(-205.9 -150.5)"/><polygon class="cls-6" points="368.98 132.59 368.98 132.52 368.86 132.58 368.98 132.59"/>
        <path class="cls-6" d="M678.47,306.74a.28.28,0,0,0,.08.09S678.52,306.77,678.47,306.74Z" transform="translate(-205.9 -150.5)"/>
        <path class="cls-6" d="M681.61,307.34l.44.17A4.08,4.08,0,0,0,681.61,307.34Z" transform="translate(-205.9 -150.5)"/>
        <path class="cls-6" d="M684,307.83a.4.4,0,0,0,.07-.12h0Z" transform="translate(-205.9 -150.5)"/>
        <path class="cls-6" d="M646,299l-.1,0C645.72,299,645.87,299,646,299Z" transform="translate(-205.9 -150.5)"/>
        <path class="cls-6" d="M657.39,301.46c-.13,0-.26,0-.4,0C657.19,301.56,657.34,301.61,657.39,301.46Z" transform="translate(-205.9 -150.5)"/><polygon class="cls-6" points="427.64 144.94 427.65 144.94 427.57 144.91 427.64 144.94"/>
        <path class="cls-6" d="M656.47,301.34a1.12,1.12,0,0,0,.52.15A1.74,1.74,0,0,0,656.47,301.34Z" transform="translate(-205.9 -150.5)"/>
        <path class="cls-6" d="M694.73,308.55h.12s0,0,0,0Z" transform="translate(-205.9 -150.5)"/>
        <path class="cls-6" d="M694.86,308.52l.13,0C694.93,308.48,694.88,308.48,694.86,308.52Z" transform="translate(-205.9 -150.5)"/>
        <path class="cls-6" d="M695.27,308.41l-.28.07C695.09,308.48,695.21,308.49,695.27,308.41Z" transform="translate(-205.9 -150.5)"/>
        <path class="cls-6" d="M691.45,308.41l0,.1A.19.19,0,0,0,691.45,308.41Z" transform="translate(-205.9 -150.5)"/>
        <path class="cls-6" d="M690.45,308.41a2.79,2.79,0,0,0,.93.19l0-.09C691.25,308.66,690.68,308.26,690.45,308.41Z" transform="translate(-205.9 -150.5)"/>
        <path class="cls-6" d="M686.44,306.86l.81.15c-.14-.12-.31-.28.06-.27C686.32,306.32,687.5,307,686.44,306.86Z" transform="translate(-205.9 -150.5)"/>
        <path class="cls-6" d="M683.93,306.41c.44,0,0-.15.05-.21C683.69,306.25,683.62,306.27,683.93,306.41Z" transform="translate(-205.9 -150.5)"/>
        <path class="cls-6" d="M665.93,302.63l.11-.24C665.7,302.34,666,302.49,665.93,302.63Z" transform="translate(-205.9 -150.5)"/><polygon class="cls-6" points="456.28 152.5 456.56 152.75 456.77 152.56 456.28 152.5"/><polygon class="cls-6" points="454.73 150.21 454.89 150.21 454.31 150.15 454.73 150.21"/>
        <path class="cls-6" d="M631,291.93v.33C631.18,292.28,631.35,292,631,291.93Z" transform="translate(-205.9 -150.5)"/>
        <path class="cls-6" d="M618.16,287.83a.67.67,0,0,0-.69-.33C617.76,287.61,618,287.83,618.16,287.83Z" transform="translate(-205.9 -150.5)"/><polygon class="cls-6" points="372.58 130.13 372.85 130.03 372.34 130.1 372.58 130.13"/>
        <path class="cls-7" d="M449.71,234.11c1.06.86,2.13,1.71,3.21,2.51s2.2,1.48,3.41,2.27a84.68,84.68,0,0,1,6.75,5.12,99.65,99.65,0,0,1,12.5,11.35,60.45,60.45,0,0,1,9.84,14,45.25,45.25,0,0,1,4.63,16.46,1.5,1.5,0,0,1-1.39,1.61,1.52,1.52,0,0,1-1.56-1.08v0a104,104,0,0,0-5.5-15.15,62,62,0,0,0-8.35-13.78,87,87,0,0,0-11.93-11.2,81.62,81.62,0,0,0-6.52-4.94c-1.12-.71-2.39-1.44-3.56-2.26s-2.3-1.68-3.41-2.54a1.5,1.5,0,0,1,1.85-2.37l0,0Z" transform="translate(-205.9 -150.5)"/>
    </g>
</svg>